<svg width="518" height="460" viewBox="0 0 518 460" fill="none" xmlns="http://www.w3.org/2000/svg">
<path fill-rule="evenodd" clip-rule="evenodd" d="M13.1357 125.845C13.1357 126.995 12.3396 134.779 11.455 143.138C8.27054 173.347 6.94367 213.506 8.27053 240.53C9.06665 254.329 9.73008 265.74 9.95122 265.962C10.1724 266.183 12.2069 265.74 14.4626 265.077C18.0893 264.06 18.5316 263.396 19.1066 259.327C19.4604 256.718 19.3277 249.022 18.7528 242.255C18.1778 235.355 17.3817 212.622 17.1605 191.79C16.3644 146.102 15.4798 123.943 14.1087 123.943C13.6222 123.899 13.1357 124.828 13.1357 125.845Z" fill="#001965" fill-opacity="0.3"/>
<path fill-rule="evenodd" clip-rule="evenodd" d="M211.635 168.039C199.207 168.481 166.389 168.923 138.702 169.056C110.97 169.189 79.7891 169.719 69.13 170.294C51.0405 171.444 35.295 173.921 34.0566 175.823C33.4816 176.84 37.5507 179.008 43.1235 180.556C47.5464 181.927 111.899 181.794 168.689 180.334C193.59 179.759 248.301 178.742 290.274 178.167C376.918 177.15 404.163 175.248 399.651 170.693C397.838 168.879 369.222 167.995 304.427 167.508C265.815 167.331 224.108 167.597 211.635 168.039Z" fill="#001965" fill-opacity="0.3"/>
<path fill-rule="evenodd" clip-rule="evenodd" d="M20.6115 337.479C19.152 339.867 18.577 383.963 19.8154 405.016C21.4076 434.782 25.1228 450.616 29.3246 446.414C32.8186 442.92 29.7669 384.096 24.4594 350.836C22.2037 337.125 21.7615 335.665 20.6115 337.479Z" fill="#001965" fill-opacity="0.3"/>
<path fill-rule="evenodd" clip-rule="evenodd" d="M37.3732 379.187C35.5598 388.563 39.6289 429.298 42.4595 430.182C43.8306 430.625 43.9191 427.352 43.3441 409.926C42.7691 389.89 40.8673 374.985 39.0539 374.985C38.4789 375.029 37.8155 376.931 37.3732 379.187Z" fill="#001965" fill-opacity="0.3"/>
<path fill-rule="evenodd" clip-rule="evenodd" d="M205.973 410.766C190.935 411.341 166.521 413.597 164.707 414.614C162.54 415.852 163.557 416.295 174.305 418.108C187.883 420.496 331.759 420.806 370.327 418.55C398.058 416.958 405.179 415.941 403.233 414.127C401.552 412.314 237.64 409.616 205.973 410.766Z" fill="#001965" fill-opacity="0.3"/>
<path fill-rule="evenodd" clip-rule="evenodd" d="M214.023 2.31353C210.617 4.1269 207.344 8.06326 199.074 20.6242C187.972 37.6081 154.845 90.8594 154.181 92.8055C153.96 93.4689 128.971 94.2651 84.8307 94.8401C46.8382 95.2823 14.9493 96.0784 13.7994 96.6534C9.06688 98.6879 5.08631 111.116 2.03452 134.557C0.221146 147.782 0 158.883 0 218.238C0 257.248 0.574968 299.088 1.45954 315.497C2.25566 331.331 3.36138 356.32 4.06904 370.916C5.74973 411.297 9.15535 447.033 11.7648 452.783C15.2589 460.7 16.055 460.833 73.862 459.108C102.699 458.312 134.5 458.091 150.422 458.533C177.136 459.329 363.516 457.516 392.707 456.145C402.305 455.702 408.32 454.906 409.691 453.977C411.593 452.606 411.725 450.483 411.372 426.511L411.018 400.593L427.736 399.797C436.892 399.355 450.824 398.426 458.608 397.895C476.83 396.303 479.307 394.49 470.505 389.536C468.029 388.165 462.456 383.079 458.166 378.125C438.926 355.967 426.94 326.112 421.633 287.191C418.802 265.917 418.802 200.458 421.765 153.399C422.915 134.867 423.579 114.61 423.358 108.374C422.783 92.9824 422.119 92.4074 405.843 91.3902C399.076 91.0364 369.752 90.9479 340.473 91.2575L287.31 91.6998L285.718 89.0903C274.086 69.8508 255.642 40.7041 245.337 25.0913C228.707 -0.0305972 224.417 -3.21507 214.023 2.31353ZM238.304 25.7548C250.069 43.4905 255.377 51.8939 271.211 77.5466L279.57 91.2133L271.078 92.0094C266.434 92.3632 239.985 93.0267 212.254 93.4689L162.054 94.1324L163.956 90.4172C172.006 74.9371 213.625 9.6555 217.34 6.7364C222.249 3.02119 225.213 5.71914 238.304 25.7548ZM415.219 100.855C417.033 102.669 417.121 104.261 415.883 121.2C415.087 131.373 414.291 143.713 413.981 148.578C413.627 153.576 413.318 157.733 413.096 157.866C412.964 157.999 394.299 157.512 371.566 156.849C342.154 156.053 316.722 156.053 282.799 157.07C185.495 159.679 150.112 160.564 94.4726 161.714C63.026 162.377 34.1888 163.173 30.3409 163.616L23.2201 164.279L23.0874 141.767C23.0874 129.338 22.7336 115.406 22.5124 110.762L22.0701 102.27H40.3809C50.5535 102.27 79.081 101.828 103.849 101.253C129.856 100.678 148.741 100.678 148.741 101.253C148.741 101.828 147.061 105.322 144.893 108.949C141.267 115.274 140.692 115.716 135.075 117.22C123.973 120.05 118.223 129.338 122.425 137.565C125.344 143.447 129.546 146.145 136.578 146.632C146.972 147.428 154.226 141.767 155.243 132.036C155.906 126.596 153.43 120.272 150.378 119.033C147.989 118.149 148.343 116.999 153.43 108.418L158.074 100.634H184.434C198.808 100.634 227.424 100.28 247.902 99.8379L285.098 99.1745L291.644 108.905C298.102 118.635 299.119 121.023 296.952 121.023C295.138 121.023 292.44 127.481 292.44 131.771C292.44 139.821 298.456 144.774 308.142 144.774C319.11 144.774 325.214 140.042 325.214 131.55C325.214 121.952 318.668 115.849 309.513 116.733L304.648 117.176L299.119 108.905C296.067 104.393 293.59 100.192 293.59 99.6168C293.59 98.8206 312.918 98.4668 353.52 98.7322C408.32 98.9091 413.539 99.0418 415.219 100.855ZM14.1532 174.938C12.3398 250.835 13.2686 276.266 18.7972 305.325C21.4952 319.345 27.5987 337.877 32.8177 348.182C44.9364 372.154 67.9796 395.242 90.9343 406.432C99.5147 410.501 101.549 411.076 110.749 411.429C116.41 411.65 131.89 410.854 145.38 409.528C172.625 406.83 216.279 403.424 249.45 401.389C265.151 400.505 290.406 400.372 337.686 400.947L403.853 401.743L404.074 425.361L404.295 448.98H400.093C397.838 448.98 365.595 449.555 328.62 450.129C250.91 451.501 19.8587 453.402 18.0453 452.739C16.5858 452.164 12.5167 398.78 10.2611 350.04C9.37649 330.712 8.09387 305.236 7.43044 293.471C6.19203 268.703 6.98814 167.021 8.66884 149.286C9.81878 136.946 12.8706 116.601 13.8878 115.008C14.2417 114.433 14.6839 114.345 15.0378 114.655C15.3031 114.876 14.8166 142.032 14.1532 174.938ZM316.147 126.419C318.978 129.913 318.978 132.523 316.501 134.911C313.582 137.521 309.159 138.317 305.399 136.813C300.534 134.911 298.942 131.594 301.419 127.746C302.215 126.375 302.79 126.375 304.692 128.188C307.876 131.108 310.795 129.781 310.22 125.579C309.867 122.97 310.088 122.527 311.813 122.97C312.963 123.235 314.909 124.827 316.147 126.419ZM137.419 126.64C137.419 129.56 139.896 129.56 142.505 126.64C145.203 123.721 147.591 125.491 147.591 130.621C147.591 136.061 142.947 139.555 136.844 138.759C128.927 137.609 126.317 131.285 131.979 126.331C135.075 123.677 137.419 123.81 137.419 126.64ZM412.61 164.412C413.052 165.075 413.185 167.906 412.964 170.737C411.504 183.298 410.929 255.788 412.168 270.826C413.848 291.968 417.387 312.578 421.456 325.006C425.436 336.992 433.884 355.215 439.988 364.724C444.985 372.508 456.264 384.759 461.704 388.032C463.738 389.271 465.419 390.73 465.419 391.217C465.419 392.898 408.187 394.136 348.346 393.826C315.439 393.605 279.26 394.047 268.026 394.622C208.317 398.028 154.801 401.743 135.915 403.778C111.368 406.476 108.316 406.255 95.1803 399.709C62.4952 383.211 44.1845 360.699 30.6063 319.964C23.9277 300.061 22.822 287.412 22.4682 223.148L22.1144 167.508L31.9331 168.171C37.3733 168.525 64.397 168.171 92.0842 167.508C119.816 166.844 165.814 165.694 194.43 165.031C223.046 164.368 260.463 163.439 277.58 162.864C320.083 161.714 411.372 162.731 412.61 164.412Z" fill="#001965"/>
<path fill-rule="evenodd" clip-rule="evenodd" d="M283.241 192.01C279.835 194.399 277.491 197.008 273.068 203.775L269.53 209.215H262.984C257.544 209.215 255.73 208.64 252.9 206.296C249.052 203.023 246 203.377 246 206.96C246 208.862 245.337 209.215 241.71 209.215C239.321 209.215 236.491 209.879 235.385 210.675C230.962 213.948 232.112 238.274 237.066 246.545L239.321 250.26L261.038 249.685C275.279 249.331 283.771 248.667 285.452 247.783C288.062 246.323 288.062 246.323 287.265 231.507C286.823 223.236 286.381 215.319 286.248 213.771C286.027 211.958 284.877 210.587 283.064 209.79L280.145 208.64L283.992 201.873C289.344 192.364 288.99 187.941 283.241 192.01ZM250.998 219.255C259.136 235.222 264.576 235.885 272.139 222.086C275.766 215.54 277.358 213.727 279.393 213.727C281.87 213.727 281.869 214.081 282.444 228.676C282.798 236.947 282.887 243.847 282.798 244.068C282.666 244.2 273.201 244.643 261.657 245.085L240.825 245.748L239.454 237.964C238.791 233.674 237.773 226.42 237.42 221.909L236.623 213.771H242.506C248.256 213.727 248.256 213.727 250.998 219.255ZM266.389 214.523C266.389 215.098 265.593 216.425 264.709 217.575C263.028 219.83 263.028 219.83 261.303 217.575C258.915 214.39 259.269 213.727 262.984 213.727C264.886 213.727 266.389 214.081 266.389 214.523Z" fill="#001965"/>
<path fill-rule="evenodd" clip-rule="evenodd" d="M165.946 209.968C160.727 210.631 159.71 214.037 160.506 226.686C161.169 238.584 162.54 243.891 165.813 248.048L168.202 251.1L190.139 250.746C216.146 250.304 216.367 250.171 213.669 241.37C212.784 238.185 211.502 230.18 210.971 223.369C210.307 215.452 209.379 210.719 208.494 210.012C206.99 209.216 173.155 209.083 165.946 209.968ZM206.415 222.529C206.415 227.394 207.211 234.293 208.096 237.92C209.113 241.635 209.688 244.687 209.555 244.82C209.334 245.041 200.179 245.395 189.21 245.616L169.086 245.97L167.494 238.628C166.609 234.559 165.459 227.659 165.017 223.148C164.354 215.894 164.442 215.01 166.388 214.567C167.627 214.213 177.003 213.992 187.53 213.904L206.415 213.771V222.529Z" fill="#001965"/>
<path fill-rule="evenodd" clip-rule="evenodd" d="M317.519 209.879C313.229 210.897 312.432 214.081 313.007 229.429C313.361 237.213 313.892 244.599 314.467 245.616C314.909 246.766 316.855 248.005 318.757 248.447C323.755 249.685 366.701 248.447 368.072 247.076C368.736 246.412 368.868 244.378 368.205 241.415C367.63 238.938 367.055 231.463 366.966 224.785C366.834 215.497 366.391 212.356 365.153 211.206C363.428 209.747 323.136 208.729 317.519 209.879ZM362.057 215.187C362.19 215.32 362.499 221.865 362.72 229.65L363.163 243.891L341.225 244.687C329.107 245.13 318.934 245.262 318.713 244.909C317.917 244.112 316.546 214.833 317.253 214.037C317.74 213.595 361.615 214.745 362.057 215.187Z" fill="#001965"/>
<path fill-rule="evenodd" clip-rule="evenodd" d="M82.0008 211.339C79.3029 212.135 79.1702 212.489 78.8163 223.9C78.4625 237.699 80.0548 246.501 83.5488 250.702L86.1583 253.754L105.265 252.516C115.792 251.852 126.185 251.499 128.353 251.852C130.52 252.074 133.66 251.852 135.385 251.189C138.083 250.172 138.304 249.818 137.287 245.749C136.712 243.36 135.606 235.134 134.589 227.438C133.704 219.654 132.422 212.843 131.758 212.179C130.299 210.675 86.5564 209.968 82.0008 211.339ZM128.397 218.46C128.397 221.379 130.652 237.257 132.112 244.599C132.245 245.616 128.397 246.191 117.649 246.633C109.6 246.987 99.3385 247.651 94.9156 248.093L86.866 248.978L85.4064 241.636C84.743 237.655 83.7257 230.225 83.2392 225.227L82.4431 216.071L89.3428 215.629C93.058 215.408 103.363 215.187 112.298 215.054L128.353 214.833V218.46H128.397Z" fill="#001965"/>
<path fill-rule="evenodd" clip-rule="evenodd" d="M189.785 282.812C182.753 283.254 175.986 284.272 174.615 285.068C172.359 286.218 172.227 286.881 172.934 294.135C173.73 302.405 178.153 318.107 180.851 321.733C182.311 323.768 183.682 323.989 199.295 323.768C217.03 323.414 225.301 322.751 227.778 321.158C229.016 320.495 228.795 317.974 226.407 308.023C224.815 301.256 222.78 292.631 221.984 288.916L220.392 282.149L211.457 282.016C206.548 281.928 196.685 282.281 189.785 282.812ZM218.888 289.933C218.888 293.339 223.178 311.649 225.124 316.736C225.699 318.416 224.461 318.637 214.155 318.77C207.698 318.903 198.322 319.345 193.235 319.787L183.859 320.672L182.178 315.453C179.79 308.421 177.092 295.329 177.092 290.906V287.279L186.468 286.837C191.555 286.704 200.931 286.395 207.388 286.262L218.932 286.041V289.933H218.888Z" fill="#001965"/>
<path fill-rule="evenodd" clip-rule="evenodd" d="M257.544 282.591C254.935 283.033 252.237 283.962 251.529 284.625C250.733 285.422 250.379 290.287 250.733 298.204C251.087 308.376 251.529 311.34 253.917 316.072L256.748 321.733L282.179 321.379C296.2 321.158 307.965 320.716 308.407 320.23C308.849 319.787 307.744 313.33 306.019 305.855C304.205 298.381 302.392 290.242 301.95 287.766C301.507 285.289 300.579 282.9 299.915 282.458C298.279 281.485 264.223 281.574 257.544 282.591ZM298.058 289.491C298.058 291.392 299.296 298.071 300.888 304.44C302.48 310.765 303.719 316.072 303.719 316.205C303.719 316.426 298.721 316.647 292.75 316.647C286.647 316.647 276.562 317.222 270.459 317.797C264.223 318.372 259.048 318.814 258.915 318.593C257.765 317.443 255.067 303.776 254.404 295.727L253.608 286.129H275.899H298.058V289.491Z" fill="#001965"/>
<path fill-rule="evenodd" clip-rule="evenodd" d="M100.798 286.129C90.4046 287.147 89.4758 288.385 90.4046 300.283C91.2007 312.622 93.5891 319.964 98.1004 324.254C102.966 328.766 105.796 329.12 119.684 327.306C126.009 326.51 136.093 325.714 141.975 325.714C147.858 325.714 153.386 325.272 154.315 324.697C155.554 323.901 155.111 322.22 151.838 315.763C148.433 308.996 146.752 302.759 144.939 289.977C144.275 285.775 141.091 284.979 124.593 285.112C115.703 285.201 105.089 285.643 100.798 286.129ZM139.72 294.489C139.72 299.354 143.435 311.561 146.487 316.426C147.725 318.461 148.742 320.141 148.742 320.407C148.742 320.539 145.469 320.407 141.4 320.274C137.42 320.053 128.618 320.628 121.94 321.645C103.629 324.343 101.816 324.255 99.7811 319.743C97.3927 314.657 95.9332 308.332 95.0486 299.486C94.0314 290.331 92.1295 290.994 119.684 290.773L139.72 290.641V294.489Z" fill="#001965"/>
<path fill-rule="evenodd" clip-rule="evenodd" d="M491.47 293.472C491.47 300.592 500.271 311.915 509.117 316.073C519.29 320.938 519.732 319.257 510.488 309.836C505.977 305.192 500.315 299 497.927 295.904C493.018 289.933 491.47 289.27 491.47 293.472Z" fill="#001965"/>
<path fill-rule="evenodd" clip-rule="evenodd" d="M458.431 293.692C456.529 302.405 474.265 329.872 487.268 338.496C494.964 343.582 501.421 346.634 502.306 345.75C502.748 345.307 498.325 340.31 492.487 334.56C484.127 326.422 480.147 321.335 474.486 311.605C467.232 299.486 461.571 291.791 459.802 291.791C459.227 291.746 458.652 292.675 458.431 293.692Z" fill="#001965"/>
</svg>
