<svg width="340" height="303" viewBox="0 0 340 303" fill="#F3F4F5" xmlns="http://www.w3.org/2000/svg">
<path fill-rule="evenodd" clip-rule="evenodd" d="M8.63689 82.7448C8.63689 83.5009 8.11343 88.6191 7.53181 94.1154C5.43798 113.978 4.56555 140.383 5.43798 158.152C5.96144 167.225 6.39765 174.728 6.54305 174.873C6.68846 175.019 8.02619 174.728 9.50932 174.292C11.894 173.623 12.1848 173.187 12.5628 170.511C12.7955 168.795 12.7082 163.735 12.3302 159.286C11.9521 154.749 11.4287 139.802 11.2833 126.105C10.7598 96.0639 10.1782 81.4943 9.27667 81.4943C8.95678 81.4652 8.63689 82.0759 8.63689 82.7448Z" fill="#001965" fill-opacity="0.3"/>
<path fill-rule="evenodd" clip-rule="evenodd" d="M139.153 110.488C130.981 110.779 109.403 111.069 91.1984 111.157C72.9646 111.244 52.4625 111.593 45.454 111.971C33.5598 112.727 23.207 114.356 22.3927 115.606C22.0147 116.275 24.6901 117.7 28.3543 118.718C31.2624 119.619 73.5753 119.532 110.915 118.572C127.288 118.194 163.261 117.525 190.859 117.147C247.829 116.478 265.742 115.228 262.776 112.233C261.584 111.04 242.768 110.459 200.165 110.139C174.777 110.022 147.354 110.197 139.153 110.488Z" fill="#001965" fill-opacity="0.3"/>
<path fill-rule="evenodd" clip-rule="evenodd" d="M13.5523 221.897C12.5926 223.467 12.2146 252.461 13.0289 266.303C14.0758 285.875 16.5186 296.286 19.2813 293.523C21.5787 291.226 19.5721 252.548 16.0824 230.679C14.5992 221.664 14.3084 220.704 13.5523 221.897Z" fill="#001965" fill-opacity="0.3"/>
<path fill-rule="evenodd" clip-rule="evenodd" d="M24.5735 249.32C23.3812 255.485 26.0567 282.269 27.9178 282.851C28.8194 283.141 28.8775 280.989 28.4995 269.531C28.1214 256.358 26.8709 246.557 25.6786 246.557C25.3006 246.587 24.8643 247.837 24.5735 249.32Z" fill="#001965" fill-opacity="0.3"/>
<path fill-rule="evenodd" clip-rule="evenodd" d="M135.43 270.084C125.542 270.462 109.49 271.945 108.297 272.614C106.872 273.428 107.541 273.719 114.608 274.912C123.536 276.482 218.136 276.686 243.495 275.202C261.729 274.156 266.411 273.487 265.131 272.294C264.026 271.102 156.252 269.328 135.43 270.084Z" fill="#001965" fill-opacity="0.3"/>
<path fill-rule="evenodd" clip-rule="evenodd" d="M140.723 1.52117C138.484 2.71349 136.332 5.3017 130.894 13.5607C123.594 24.7278 101.813 59.7413 101.376 61.0209C101.231 61.4571 84.8002 61.9806 55.7774 62.3586C30.7968 62.6494 9.82937 63.1729 9.07326 63.5509C5.9616 64.8886 3.34432 73.0604 1.33773 88.4733C0.145407 97.1685 0 104.468 0 143.495C0 169.144 0.378049 196.655 0.959669 207.444C1.48313 217.855 2.21015 234.285 2.67545 243.882C3.78052 270.433 6.01977 293.931 7.73555 297.711C10.0329 302.917 10.5564 303.004 48.5653 301.87C67.5261 301.346 88.4353 301.201 98.9045 301.492C116.469 302.015 239.017 300.823 258.21 299.921C264.521 299.63 268.476 299.107 269.377 298.496C270.628 297.595 270.715 296.199 270.482 280.437L270.25 263.395L281.242 262.872C287.262 262.581 296.423 261.971 301.541 261.622C313.522 260.575 315.151 259.382 309.364 256.125C307.735 255.224 304.071 251.879 301.25 248.622C288.6 234.053 280.719 214.423 277.229 188.832C275.368 174.844 275.368 131.804 277.316 100.862C278.072 88.6769 278.509 75.3578 278.363 71.2574C277.985 61.1372 277.549 60.7591 266.847 60.0903C262.398 59.8576 243.117 59.7995 223.865 60.003L188.91 60.2938L187.863 58.5781C180.215 45.9278 168.088 26.7635 161.312 16.4979C150.378 -0.0201181 147.557 -2.11395 140.723 1.52117ZM156.688 16.9341C164.424 28.5956 167.914 34.121 178.325 50.9879L183.821 59.974L178.237 60.4974C175.184 60.7301 157.793 61.1663 139.56 61.4571L106.553 61.8933L107.803 59.4505C113.096 49.2722 140.461 6.34862 142.904 4.42927C146.132 1.98647 148.08 3.76041 156.688 16.9341ZM273.012 66.3136C274.205 67.5059 274.263 68.5528 273.449 79.6909C272.925 86.3795 272.402 94.4931 272.198 97.692C271.965 100.978 271.762 103.712 271.616 103.799C271.529 103.886 259.257 103.566 244.309 103.13C224.971 102.607 208.249 102.607 185.944 103.276C121.966 104.991 98.7009 105.573 62.117 106.329C41.4404 106.765 22.4796 107.289 19.9496 107.58L15.2675 108.016L15.1803 93.2135C15.1803 85.0418 14.9476 75.8813 14.8022 72.8278L14.5114 67.2442H26.551C33.2396 67.2442 51.9968 66.9534 68.2822 66.5754C85.3818 66.1973 97.7994 66.1973 97.7994 66.5754C97.7994 66.9534 96.6943 69.2508 95.2693 71.6354C92.8847 75.794 92.5066 76.0848 88.8133 77.0736C81.514 78.9348 77.7335 85.0418 80.4962 90.4508C82.4155 94.3186 85.1782 96.0925 89.8021 96.4124C96.6361 96.9359 101.405 93.2135 102.074 86.8157C102.51 83.2387 100.882 79.0802 98.8754 78.2659C97.305 77.6843 97.5377 76.9282 100.882 71.2865L103.935 66.1682H121.268C130.719 66.1682 149.534 65.9356 162.999 65.6448L187.456 65.2085L191.76 71.6064C196.006 78.0042 196.675 79.5745 195.25 79.5745C194.057 79.5745 192.284 83.8204 192.284 86.6412C192.284 91.934 196.239 95.191 202.607 95.191C209.819 95.191 213.833 92.0794 213.833 86.4958C213.833 80.1852 209.529 76.1721 203.509 76.7537L200.31 77.0445L196.675 71.6064C194.668 68.6401 193.04 65.8774 193.04 65.4994C193.04 64.9759 205.748 64.7432 232.444 64.9177C268.476 65.0341 271.907 65.1213 273.012 66.3136ZM9.30591 115.024C8.11359 164.927 8.72429 181.649 12.3594 200.755C14.1334 209.974 18.1465 222.159 21.5781 228.935C29.5463 244.696 44.6975 259.877 59.7905 267.234C65.4322 269.91 66.77 270.288 72.8188 270.52C76.5412 270.666 86.7195 270.142 95.5892 269.27C113.503 267.496 142.206 265.257 164.017 263.919C174.341 263.337 190.946 263.25 222.033 263.628L265.539 264.152L265.684 279.681L265.829 295.21H263.067C261.584 295.21 240.383 295.588 216.072 295.966C164.976 296.868 13.0574 298.118 11.8651 297.682C10.9054 297.304 8.22992 262.203 6.74679 230.156C6.16516 217.448 5.32183 200.697 4.88561 192.961C4.07134 176.676 4.5948 109.819 5.69988 98.1573C6.45598 90.0437 8.46257 76.6664 9.13143 75.6195C9.36408 75.2415 9.65488 75.1833 9.88753 75.3869C10.062 75.5323 9.74212 93.388 9.30591 115.024ZM207.871 83.1224C209.732 85.4198 209.732 87.1356 208.104 88.706C206.184 90.4218 203.276 90.9452 200.804 89.9565C197.605 88.706 196.558 86.5249 198.187 83.9949C198.71 83.0933 199.088 83.0933 200.339 84.2857C202.433 86.205 204.352 85.3326 203.974 82.5699C203.741 80.8541 203.887 80.5633 205.021 80.8541C205.777 81.0286 207.057 82.0755 207.871 83.1224ZM90.3546 83.2678C90.3546 85.1872 91.9832 85.1872 93.699 83.2678C95.4729 81.3485 97.0433 82.5117 97.0433 85.8851C97.0433 89.4621 93.9898 91.7595 89.9766 91.236C84.7711 90.4799 83.0553 86.3213 86.7777 83.0643C88.8133 81.3194 90.3546 81.4066 90.3546 83.2678ZM271.297 108.103C271.587 108.539 271.675 110.4 271.529 112.262C270.57 120.521 270.191 168.184 271.006 178.072C272.111 191.973 274.437 205.524 277.113 213.696C279.73 221.577 285.285 233.558 289.298 239.811C292.584 244.929 300 252.985 303.577 255.137C304.914 255.951 306.019 256.91 306.019 257.23C306.019 258.335 268.388 259.15 229.042 258.946C207.406 258.801 183.617 259.091 176.231 259.47C136.971 261.709 101.783 264.152 89.3659 265.489C73.2259 267.263 71.2193 267.118 62.5823 262.814C41.0914 251.967 29.0519 237.164 20.124 210.381C15.7328 197.294 15.0058 188.977 14.7731 146.723L14.5405 110.139L20.9965 110.575C24.5734 110.808 42.3419 110.575 60.5466 110.139C78.7804 109.702 109.025 108.946 127.84 108.51C146.655 108.074 171.258 107.463 182.512 107.085C210.459 106.329 270.482 106.998 271.297 108.103Z" fill="#001965"/>
<path fill-rule="evenodd" clip-rule="evenodd" d="M186.234 126.249C183.995 127.82 182.454 129.536 179.546 133.985L177.219 137.562H172.915C169.338 137.562 168.146 137.184 166.285 135.643C163.755 133.491 161.748 133.723 161.748 136.079C161.748 137.329 161.312 137.562 158.927 137.562C157.357 137.562 155.496 137.998 154.769 138.522C151.861 140.674 152.617 156.668 155.874 162.106L157.357 164.549L171.636 164.171C181 163.938 186.583 163.502 187.689 162.921C189.404 161.961 189.404 161.961 188.881 152.219C188.59 146.781 188.299 141.575 188.212 140.557C188.067 139.365 187.31 138.464 186.118 137.94L184.199 137.184L186.729 132.735C190.248 126.482 190.015 123.574 186.234 126.249ZM165.034 144.163C170.385 154.662 173.962 155.098 178.935 146.025C181.32 141.721 182.367 140.528 183.704 140.528C185.333 140.528 185.333 140.761 185.711 150.358C185.944 155.796 186.002 160.332 185.944 160.478C185.856 160.565 179.633 160.856 172.043 161.147L158.346 161.583L157.444 156.465C157.008 153.644 156.339 148.875 156.107 145.908L155.583 140.557H159.451C163.231 140.528 163.231 140.528 165.034 144.163ZM175.155 141.052C175.155 141.43 174.631 142.302 174.05 143.058C172.944 144.541 172.944 144.541 171.81 143.058C170.24 140.964 170.473 140.528 172.915 140.528C174.166 140.528 175.155 140.761 175.155 141.052Z" fill="#001965"/>
<path fill-rule="evenodd" clip-rule="evenodd" d="M109.112 138.057C105.68 138.493 105.011 140.732 105.535 149.049C105.971 156.872 106.872 160.362 109.024 163.095L110.595 165.102L125.019 164.869C142.118 164.578 142.264 164.491 140.49 158.704C139.908 156.61 139.065 151.347 138.716 146.868C138.28 141.663 137.669 138.551 137.087 138.086C136.099 137.562 113.852 137.475 109.112 138.057ZM135.721 146.316C135.721 149.514 136.244 154.051 136.826 156.436C137.495 158.879 137.873 160.885 137.785 160.972C137.64 161.118 131.62 161.35 124.408 161.496L111.176 161.728L110.129 156.901C109.548 154.226 108.792 149.689 108.501 146.723C108.065 141.953 108.123 141.372 109.402 141.081C110.217 140.848 116.382 140.703 123.303 140.645L135.721 140.557V146.316Z" fill="#001965"/>
<path fill-rule="evenodd" clip-rule="evenodd" d="M208.773 137.998C205.952 138.667 205.429 140.761 205.807 150.852C206.039 155.971 206.388 160.827 206.766 161.496C207.057 162.252 208.337 163.066 209.587 163.357C212.873 164.171 241.111 163.357 242.012 162.456C242.449 162.019 242.536 160.682 242.1 158.733C241.722 157.105 241.344 152.19 241.285 147.799C241.198 141.692 240.907 139.627 240.093 138.871C238.959 137.911 212.466 137.242 208.773 137.998ZM238.057 141.488C238.145 141.575 238.348 145.879 238.494 150.998L238.784 160.362L224.36 160.885C216.392 161.176 209.703 161.263 209.558 161.031C209.035 160.507 208.133 141.256 208.598 140.732C208.918 140.441 237.767 141.197 238.057 141.488Z" fill="#001965"/>
<path fill-rule="evenodd" clip-rule="evenodd" d="M53.9167 138.958C52.1427 139.482 52.0555 139.714 51.8228 147.217C51.5902 156.29 52.6371 162.077 54.9345 164.84L56.6503 166.847L69.2133 166.033C76.1345 165.596 82.9686 165.364 84.3935 165.596C85.8185 165.742 87.8833 165.596 89.0174 165.16C90.7914 164.491 90.9368 164.259 90.2679 161.583C89.8898 160.013 89.1628 154.604 88.494 149.544C87.9123 144.425 87.069 139.947 86.6328 139.511C85.6731 138.522 56.912 138.057 53.9167 138.958ZM84.4226 143.64C84.4226 145.559 85.9057 156 86.8654 160.827C86.9527 161.496 84.4226 161.874 77.3559 162.165C72.0632 162.397 65.3164 162.834 62.4083 163.124L57.1156 163.706L56.1559 158.879C55.7197 156.261 55.0508 151.376 54.7309 148.09L54.2075 142.07L58.7441 141.779C61.1869 141.634 67.9628 141.488 73.8371 141.401L84.3935 141.256V143.64H84.4226Z" fill="#001965"/>
<path fill-rule="evenodd" clip-rule="evenodd" d="M216.799 184.993C215.025 185.575 214.938 185.808 215.025 192.293C215.025 200.115 216.799 206.804 219.562 209.538L221.423 211.399L235.992 210.963C244.106 210.73 250.795 210.207 251.231 209.77C251.754 209.247 251.463 207.473 250.417 204.274C249.602 201.657 248.497 196.539 247.974 192.903C247.538 189.268 246.869 186.069 246.636 185.779C245.938 185.081 218.951 184.412 216.799 184.993ZM244.6 189.007C244.833 189.966 245.037 191.915 245.037 193.311C245.124 195.753 247.13 204.1 248.323 206.833C248.846 208.026 247.799 208.084 235.091 208.316L221.19 208.549L219.474 202.965C218.515 199.912 217.468 195.143 217.177 192.322L216.654 187.349H230.409C244.019 187.378 244.164 187.378 244.6 189.007Z" fill="#001965"/>
<path fill-rule="evenodd" clip-rule="evenodd" d="M124.787 185.953C120.163 186.244 115.713 186.912 114.812 187.436C113.329 188.192 113.241 188.628 113.707 193.398C114.23 198.836 117.138 209.159 118.912 211.544C119.872 212.882 120.773 213.027 131.039 212.882C142.7 212.649 148.139 212.213 149.767 211.166C150.581 210.73 150.436 209.072 148.866 202.529C147.819 198.08 146.481 192.409 145.958 189.966L144.911 185.517L139.036 185.429C135.808 185.371 129.323 185.604 124.787 185.953ZM143.922 190.635C143.922 192.874 146.743 204.914 148.022 208.258C148.4 209.363 147.586 209.508 140.81 209.596C136.564 209.683 130.399 209.974 127.055 210.265L120.89 210.846L119.785 207.415C118.214 202.791 116.44 194.183 116.44 191.275V188.89L122.605 188.599C125.95 188.512 132.115 188.308 136.361 188.221L143.951 188.076V190.635H143.922Z" fill="#001965"/>
<path fill-rule="evenodd" clip-rule="evenodd" d="M169.339 185.807C167.623 186.098 165.849 186.709 165.384 187.145C164.86 187.668 164.628 190.867 164.86 196.073C165.093 202.761 165.384 204.71 166.954 207.822L168.815 211.544L185.537 211.311C194.755 211.166 202.491 210.875 202.782 210.555C203.073 210.264 202.346 206.018 201.211 201.104C200.019 196.189 198.827 190.838 198.536 189.21C198.245 187.581 197.634 186.011 197.198 185.72C196.122 185.08 173.73 185.138 169.339 185.807ZM195.977 190.344C195.977 191.594 196.791 195.986 197.838 200.173C198.885 204.332 199.699 207.822 199.699 207.909C199.699 208.054 196.413 208.2 192.487 208.2C188.474 208.2 181.844 208.578 177.83 208.956C173.73 209.334 170.327 209.625 170.24 209.479C169.484 208.723 167.71 199.737 167.274 194.444L166.75 188.134H181.407H195.977V190.344Z" fill="#001965"/>
<path fill-rule="evenodd" clip-rule="evenodd" d="M66.2762 188.134C59.4422 188.803 58.8315 189.617 59.4422 197.44C59.9657 205.553 61.536 210.381 64.5023 213.202C67.7012 216.168 69.5624 216.401 78.6938 215.208C82.8524 214.685 89.4829 214.161 93.3506 214.161C97.2184 214.161 100.854 213.871 101.464 213.492C102.278 212.969 101.988 211.864 99.8357 207.618C97.5965 203.169 96.4914 199.068 95.2991 190.664C94.8628 187.901 92.769 187.378 81.9218 187.465C76.0765 187.523 69.0971 187.814 66.2762 188.134ZM91.8675 193.63C91.8675 196.829 94.3103 204.855 96.3169 208.054C97.1312 209.392 97.8 210.497 97.8 210.672C97.8 210.759 95.648 210.672 92.9726 210.584C90.3553 210.439 84.5682 210.817 80.1769 211.486C68.1374 213.26 66.9451 213.202 65.6074 210.235C64.037 206.891 63.0773 202.733 62.4957 196.916C61.8268 190.897 60.5764 191.333 78.6938 191.187L91.8675 191.1V193.63Z" fill="#001965"/>
<path fill-rule="evenodd" clip-rule="evenodd" d="M323.148 192.962C323.148 197.644 328.935 205.088 334.751 207.822C341.44 211.021 341.731 209.916 335.653 203.722C332.687 200.668 328.964 196.597 327.394 194.561C324.166 190.635 323.148 190.199 323.148 192.962Z" fill="#001965"/>
<path fill-rule="evenodd" clip-rule="evenodd" d="M301.424 193.107C300.174 198.836 311.835 216.895 320.385 222.566C325.445 225.91 329.691 227.917 330.273 227.335C330.563 227.044 327.655 223.758 323.817 219.978C318.32 214.627 315.703 211.282 311.981 204.885C307.211 196.916 303.489 191.856 302.326 191.856C301.948 191.827 301.57 192.438 301.424 193.107Z" fill="#001965"/>
</svg>
