<svg width="261" height="356" viewBox="0 0 261 356" fill="none" xmlns="http://www.w3.org/2000/svg">
<path d="M226.765 201.64C225.914 201.64 225.129 200.985 224.998 200.135C222.119 183.773 213.218 168.197 199.933 156.221C187.694 145.226 171.856 137.242 154.121 133.184C132.066 128.145 110.469 130.043 93.1911 138.616C92.2748 139.074 91.1623 138.681 90.7696 137.765C90.3115 136.849 90.7041 135.736 91.6204 135.344C109.618 126.443 132.131 124.414 154.972 129.65C173.362 133.838 189.723 142.085 202.419 153.537C216.359 166.103 225.653 182.399 228.663 199.546C228.859 200.527 228.14 201.509 227.158 201.64C226.962 201.64 226.831 201.64 226.765 201.64Z" fill="#001965" fill-opacity="0.3"/>
<path d="M123.82 350.267C120.94 350.267 118.126 350.136 115.377 349.874C89.9191 347.518 66.9477 337.701 47.1178 320.554C-10.4087 271.012 9.094 206.941 13.6097 194.572C13.937 193.656 14.9841 193.132 15.9658 193.459C16.882 193.787 17.4056 194.834 17.0783 195.815C12.7589 207.727 -6.15478 269.769 49.5393 317.74C68.7802 334.363 91.0971 343.918 115.77 346.144C135.665 347.976 158.899 342.937 186.909 330.764C187.825 330.371 188.938 330.764 189.331 331.68C189.723 332.596 189.331 333.709 188.414 334.102C163.545 344.966 142.341 350.267 123.82 350.267Z" fill="#001965" fill-opacity="0.3"/>
<path d="M116.162 71.6652C115.246 71.6652 114.461 71.0107 114.33 70.0945L112.955 59.6232C112.825 58.6415 113.544 57.7253 114.526 57.5944C115.508 57.4635 116.424 58.1834 116.555 59.1651L117.929 69.6364C118.06 70.6181 117.34 71.5343 116.359 71.6652C116.359 71.6652 116.293 71.6652 116.162 71.6652Z" fill="#001965" fill-opacity="0.3"/>
<path d="M135.338 70.2252C134.422 70.2252 133.637 69.5053 133.506 68.5891L132.459 58.0524C132.328 57.0707 133.113 56.1545 134.095 56.0236C135.142 55.9581 135.993 56.678 136.123 57.6597L137.171 68.1964C137.301 69.1781 136.516 70.0943 135.534 70.2252C135.469 70.2252 135.404 70.2252 135.338 70.2252Z" fill="#001965" fill-opacity="0.3"/>
<path d="M95.8742 73.8249C95.0234 73.8249 94.2381 73.1704 94.0418 72.3196C93.5182 68.851 93.0601 65.3824 92.7983 61.9138C92.7329 60.9321 93.4528 60.0159 94.4999 59.9504C95.4816 59.885 96.3978 60.6049 96.4633 61.652C96.725 64.9897 97.1177 68.3929 97.6413 71.7306C97.7722 72.7123 97.1177 73.694 96.136 73.8249C96.0706 73.8249 96.0051 73.8249 95.8742 73.8249Z" fill="#001965" fill-opacity="0.3"/>
<path d="M104.709 89.9901C113.414 88.4194 122.249 87.8304 131.019 88.2885C130.691 85.5398 130.56 82.7911 130.626 80.0424C121.464 80.1078 112.236 80.8277 103.139 82.0712C103.531 84.689 103.924 87.3068 104.709 89.9901Z" fill="#001965" fill-opacity="0.3"/>
<path d="M104.709 91.8224C103.924 91.8224 103.204 91.2988 102.942 90.5135C102.091 87.6993 101.764 84.9506 101.371 82.3328C101.24 81.3511 101.96 80.4349 102.942 80.304C112.104 79.0605 121.398 78.3406 130.625 78.2752C131.149 78.3406 131.607 78.4715 131.934 78.7987C132.262 79.126 132.458 79.6495 132.458 80.1076C132.392 82.7909 132.523 85.4742 132.851 88.092C132.916 88.6155 132.72 89.1391 132.392 89.5318C132 89.9245 131.542 90.1208 130.953 90.1208C122.314 89.6627 113.544 90.2517 105.036 91.8224C104.905 91.8224 104.774 91.8224 104.709 91.8224ZM105.233 83.6417C105.429 85.0815 105.691 86.4558 106.018 87.8956C113.61 86.6522 121.332 86.1286 128.989 86.3904C128.858 84.8852 128.793 83.3799 128.793 81.9401C120.94 82.0056 113.021 82.5946 105.233 83.6417Z" fill="#001965" fill-opacity="0.3"/>
<path d="M132.328 238.355C129.775 238.355 127.288 237.242 125.652 235.344C124.016 233.446 123.231 230.829 123.558 228.342C123.689 227.36 124.605 226.64 125.587 226.771C126.568 226.902 127.288 227.818 127.157 228.8C126.961 230.24 127.419 231.81 128.401 232.923C129.383 234.035 130.822 234.69 132.328 234.69C133.309 234.69 134.16 235.541 134.16 236.522C134.16 237.569 133.309 238.355 132.328 238.355Z" fill="#001965" fill-opacity="0.3"/>
<path d="M130.495 355.044C111.712 355.044 92.9293 351.379 76.4371 344.049C15.9001 316.955 -0.919395 255.632 0.454958 230.174C2.54921 190.187 14.7875 159.1 36.7772 137.765C61.7773 113.485 99.8665 98.7596 133.833 100.396C162.694 101.77 201.896 111.98 225.26 136.653C253.336 166.234 266.818 216.3 257.394 255.763C247.446 297.321 213.872 328.8 193.781 339.861C175.194 349.874 152.877 355.044 130.495 355.044ZM128.663 105.697C97.3796 105.697 63.2826 119.506 40.5076 141.626C19.565 161.98 7.91574 191.888 5.88693 230.436C5.03614 246.143 14.9838 310.541 78.6622 339.01C113.217 354.455 158.44 352.819 191.097 334.952C210.338 324.415 242.472 294.245 252.027 254.389C260.928 217.281 247.708 168.197 221.268 140.317C199.016 116.823 161.385 107.071 133.571 105.762C131.935 105.697 130.299 105.697 128.663 105.697Z" fill="#001965"/>
<path d="M130.43 332.203C114.265 332.203 98.1654 329.127 84.3564 322.976C31.1493 299.219 21.7251 247.713 22.5759 229.847C24.0812 198.302 34.9451 171.928 53.9243 153.734C75.3904 133.118 107.131 120.16 134.749 120.553C166.949 121.076 192.472 132.595 212.891 155.697C239.2 185.475 243.651 224.415 236.779 247.975C227.289 280.24 202.485 309.756 184.03 319.703C168.454 327.949 149.409 332.203 130.43 332.203ZM133.31 125.985C107.328 125.985 77.8119 138.289 57.7201 157.66C35.0106 179.454 29.0551 209.101 28.0734 230.109C27.288 246.928 36.1886 295.488 86.647 318.002C115.247 330.764 154.252 329.455 181.412 314.86C195.745 307.138 221.595 280.043 231.543 246.404C238.088 224.218 233.768 187.504 208.834 159.297C189.527 137.438 165.312 126.508 134.749 126.05C134.16 125.985 133.702 125.985 133.31 125.985Z" fill="#001965"/>
<path d="M104.709 108.249C103.335 108.249 102.157 107.202 102.026 105.828C101.11 98.3017 100.324 90.7755 99.7354 83.2492C99.6045 81.744 100.717 80.4351 102.222 80.3042C103.728 80.1733 105.037 81.2859 105.167 82.7911C105.756 90.1865 106.542 97.7127 107.458 105.173C107.654 106.679 106.542 108.053 105.036 108.249C104.971 108.249 104.84 108.249 104.709 108.249Z" fill="#001965"/>
<path d="M133.702 105.763C132.327 105.763 131.149 104.716 130.953 103.276C130.495 98.3019 130.168 92.4772 129.84 86.7835C129.709 84.4274 129.579 82.2023 129.448 80.108C129.382 78.6028 130.495 77.2939 132 77.2284C133.505 77.163 134.814 78.2756 134.88 79.7808C135.011 81.8751 135.141 84.1657 135.272 86.4563C135.6 92.0846 135.927 97.8438 136.385 102.687C136.516 104.192 135.403 105.501 133.898 105.697C133.833 105.763 133.767 105.763 133.702 105.763Z" fill="#001965"/>
<path d="M91.2927 83.8379C88.0204 83.8379 84.5518 83.6416 81.2796 82.529C77.3528 81.2201 72.9026 77.2934 73.9497 65.775C74.4078 60.6048 76.1748 56.809 79.1199 54.5838C81.2141 53.0131 83.6356 52.3587 86.1225 51.7697C105.102 47.5157 124.539 45.8141 143.976 46.7304C146.79 46.8613 152.026 47.123 155.429 50.5917C157.916 53.144 158.636 56.6126 159.029 59.6231C159.356 62.3064 159.618 65.4478 158.701 68.4583C157.523 72.3195 154.382 75.7227 150.128 77.817C146.463 79.6494 142.406 80.3039 138.872 80.8274C124.212 82.9871 109.225 83.3798 94.7613 83.7725C93.6488 83.7725 92.4707 83.8379 91.2927 83.8379ZM133.505 51.966C117.994 51.966 102.484 53.6676 87.3006 57.0708C85.3372 57.5289 83.6356 57.9215 82.4576 58.9032C80.756 60.2121 79.7743 62.6336 79.3817 66.2331C78.989 70.618 79.2508 76.0499 82.9812 77.2934C86.5807 78.4714 90.7037 78.406 94.6304 78.2751C108.898 77.9478 123.688 77.5552 138.021 75.3955C141.293 74.9374 144.696 74.3483 147.641 72.8431C150.586 71.4033 152.681 69.1782 153.4 66.7567C153.989 64.7933 153.859 62.5027 153.531 60.2776C153.204 57.987 152.746 55.6964 151.437 54.322C149.735 52.555 146.529 52.2278 143.649 52.0969C140.311 52.0315 136.908 51.966 133.505 51.966Z" fill="#001965"/>
<path d="M131.019 247.124C125.718 247.124 120.22 244.572 117.013 240.187C112.825 234.559 113.021 226.117 117.406 220.554C121.725 215.122 129.644 212.897 136.254 215.253C141.163 217.02 144.239 219.703 146.006 223.826C146.856 225.724 147.838 231.745 145.548 237.373C143.846 241.496 140.639 244.507 136.254 246.208C134.618 246.863 132.851 247.124 131.019 247.124ZM130.757 219.834C127.288 219.834 123.82 221.339 121.725 224.022C118.846 227.622 118.715 233.316 121.398 236.98C124.212 240.842 130.168 242.74 134.291 241.104C137.236 239.991 139.265 238.028 140.443 235.41C142.275 231.156 141.228 226.575 141.032 225.986C139.854 223.302 137.89 221.666 134.422 220.423C133.244 220.03 132 219.834 130.757 219.834Z" fill="#001965"/>
<path d="M120.285 224.153C120.154 224.153 120.023 224.153 119.893 224.153C118.387 223.957 117.34 222.583 117.536 221.077C117.929 218.329 118.322 215.384 118.78 212.308C120.94 196.666 123.623 177.229 126.372 163.42C126.633 162.177 127.681 161.26 128.989 161.195C130.233 161.129 131.411 162.046 131.738 163.289C133.767 171.339 135.73 181.418 137.628 191.169C139.592 201.182 141.62 211.588 143.715 219.834C143.78 219.965 143.78 220.096 143.846 220.161L143.911 220.358C144.238 221.797 143.322 223.237 141.882 223.63C140.442 224.022 139.003 223.106 138.61 221.666C136.45 213.224 134.356 202.556 132.327 192.216C131.411 187.373 130.429 182.465 129.448 177.753C127.55 189.206 125.783 202.033 124.277 213.028C123.819 216.104 123.427 219.114 123.034 221.797C122.772 223.172 121.594 224.153 120.285 224.153Z" fill="#001965"/>
<path d="M128.401 149.48C126.961 149.48 125.783 148.367 125.652 146.928L125.521 144.31C125.325 141.103 125.063 136.718 124.801 133.969C124.67 132.464 125.717 131.09 127.223 130.959C128.728 130.828 130.102 131.875 130.233 133.38C130.56 136.26 130.822 140.71 131.018 143.983L131.149 146.535C131.215 148.04 130.102 149.349 128.597 149.415C128.531 149.48 128.466 149.48 128.401 149.48Z" fill="#001965"/>
<path d="M215.639 224.022C214.265 224.022 213.021 222.975 212.891 221.535C212.76 220.03 213.872 218.721 215.378 218.59L225.522 217.674C227.027 217.543 228.336 218.656 228.467 220.161C228.598 221.666 227.485 222.975 225.98 223.106L215.836 224.022C215.77 224.022 215.705 224.022 215.639 224.022Z" fill="#001965"/>
<path d="M134.683 324.154C133.244 324.154 132 322.976 131.935 321.536L131.346 308.709C131.28 307.203 132.458 305.894 133.963 305.829C135.534 305.698 136.778 306.942 136.843 308.447L137.432 321.274C137.497 322.779 136.319 324.088 134.814 324.154C134.814 324.154 134.749 324.154 134.683 324.154Z" fill="#001965"/>
<path d="M39.8531 235.279C38.3479 235.279 37.1698 234.101 37.1044 232.596C37.039 231.09 38.2824 229.847 39.7877 229.782L52.8113 229.454C54.3165 229.454 55.56 230.632 55.6254 232.138C55.6909 233.643 54.4474 234.886 52.9422 234.952L39.9185 235.279C39.9185 235.279 39.9186 235.279 39.8531 235.279Z" fill="#001965"/>
<path d="M225.26 143.393C224.605 143.393 223.951 143.131 223.427 142.673C222.315 141.626 222.184 139.925 223.231 138.812C227.223 134.427 230.299 130.762 233.506 125.985C234.946 123.89 236.189 121.731 235.797 119.898C235.535 118.524 234.291 117.215 232.786 115.71C229.252 112.176 225.26 108.249 220.482 106.547C219.043 106.024 217.93 105.958 217.145 106.22C216.294 106.547 215.574 107.464 214.723 108.576C211.189 113.092 207.72 117.739 204.514 122.451C203.663 123.694 201.961 124.021 200.718 123.171C199.474 122.32 199.147 120.618 199.998 119.375C203.27 114.532 206.804 109.754 210.404 105.173C211.385 103.93 212.891 102.032 215.116 101.181C217.145 100.396 219.501 100.461 222.249 101.377C228.205 103.406 232.655 107.856 236.647 111.783C238.283 113.419 240.509 115.644 241.163 118.72C241.948 122.582 239.985 126.05 238.022 128.995C234.619 133.969 231.412 137.83 227.289 142.411C226.765 143.066 226.045 143.393 225.26 143.393Z" fill="#001965"/>
<path d="M159.356 24.0211C157.917 24.0211 156.673 22.8431 156.608 21.4033L155.888 2.8822C155.822 1.37696 157 0.0680457 158.506 0.00260032C160.076 -0.0628451 161.32 1.11517 161.385 2.62042L162.105 21.1415C162.171 22.6467 160.993 23.9556 159.487 24.0211C159.487 24.0211 159.422 24.0211 159.356 24.0211Z" fill="#001965"/>
<path d="M176.699 27.0969C176.175 27.0969 175.586 26.966 175.128 26.6388C173.885 25.788 173.558 24.0864 174.408 22.8429C178.859 16.4293 183.571 10.0811 188.414 3.92919C189.33 2.75117 191.097 2.55484 192.275 3.47107C193.453 4.38731 193.649 6.15434 192.733 7.33235C187.956 13.3533 183.309 19.6361 178.924 25.9843C178.401 26.6388 177.55 27.0969 176.699 27.0969Z" fill="#001965"/>
<path d="M183.767 40.4481C182.393 40.4481 181.149 39.401 181.019 37.9612C180.888 36.4559 182 35.147 183.505 34.9507L201.307 33.2491C202.812 33.1182 204.121 34.2308 204.317 35.736C204.448 37.2413 203.335 38.5502 201.83 38.7465L184.029 40.4481C183.964 40.4481 183.833 40.4481 183.767 40.4481Z" fill="#001965"/>
</svg>
