<svg width="142" height="62" viewBox="0 0 142 62" fill="none" xmlns="http://www.w3.org/2000/svg">
<g filter="url(#filter0_d_88_2228)">
<path d="M16.9655 31.3318C22.366 30.5291 27.5864 32.5724 30.9707 36.6592C33.527 31.5872 38.7114 28.3397 44.3639 28.3397C45.6601 28.3397 46.9202 28.4857 48.1443 28.8141C48.1083 28.2302 48.0723 27.6464 48.0723 27.0626C48.0723 12.6494 59.6293 0.972961 73.8146 0.972961C79.0711 0.972961 84.1115 2.54199 88.3959 5.57057C92.5003 8.45321 95.7046 12.4305 97.6128 17.0646C97.9728 17.0646 98.2968 17.0281 98.6209 17.0281C103.265 17.0281 107.658 18.5242 111.366 21.3338C114.858 23.961 117.487 27.7194 118.855 31.8791C119.647 31.7697 120.439 31.6967 121.231 31.6967C130.124 31.6967 137.36 39.031 137.36 48.0438C137.36 49.6858 137.108 51.3278 136.64 52.9333L136.532 53.2252H5.44442L5.33641 52.9698C4.54434 51.1818 4.1123 49.2844 4.0403 47.314C3.71627 39.5418 9.36878 32.463 16.9655 31.3318Z" fill="white"/>
</g>
<defs>
<filter id="filter0_d_88_2228" x="0.0270386" y="0.972961" width="141.333" height="60.2523" filterUnits="userSpaceOnUse" color-interpolation-filters="sRGB">
<feFlood flood-opacity="0" result="BackgroundImageFix"/>
<feColorMatrix in="SourceAlpha" type="matrix" values="0 0 0 0 0 0 0 0 0 0 0 0 0 0 0 0 0 0 127 0" result="hardAlpha"/>
<feOffset dy="4"/>
<feGaussianBlur stdDeviation="2"/>
<feComposite in2="hardAlpha" operator="out"/>
<feColorMatrix type="matrix" values="0 0 0 0 0 0 0 0 0 0 0 0 0 0 0 0 0 0 0.05 0"/>
<feBlend mode="normal" in2="BackgroundImageFix" result="effect1_dropShadow_88_2228"/>
<feBlend mode="normal" in="SourceGraphic" in2="effect1_dropShadow_88_2228" result="shape"/>
</filter>
</defs>
</svg>
