<svg width="550" height="274" viewBox="0 0 550 274" fill="none" xmlns="http://www.w3.org/2000/svg">
<path d="M267.706 141.794C260.483 133.517 255.667 124.489 255.367 123.736C255.216 123.435 255.367 123.285 255.517 123.134C255.818 122.984 255.968 123.134 256.119 123.285C256.269 123.586 270.866 151.274 288.02 154.584C288.321 154.584 288.472 154.885 288.321 155.186C288.321 155.487 288.02 155.638 287.719 155.487C280.346 153.982 273.273 148.114 267.706 141.794Z" fill="#001965"/>
<path d="M319.32 161.958C312.398 153.982 320.975 140.289 320.975 140.138C321.125 139.988 321.426 139.837 321.577 139.988C321.727 140.138 321.878 140.439 321.727 140.59C321.577 140.74 311.796 156.54 322.179 163.312C322.329 163.462 322.48 163.763 322.329 163.914C322.179 164.064 321.878 164.215 321.727 164.064C320.824 163.462 319.922 162.71 319.32 161.958Z" fill="#001965"/>
<path d="M207.214 149.619C201.646 143.298 198.335 138.333 198.335 138.182C198.185 138.032 198.185 137.731 198.486 137.58C198.636 137.43 198.937 137.43 199.088 137.731C199.389 138.182 224.067 176.103 253.711 175.651C254.012 175.651 254.163 175.802 254.163 176.103C254.163 176.404 254.012 176.554 253.711 176.554C234.45 176.855 217.145 161.055 207.214 149.619Z" fill="#001965"/>
<path d="M175.463 141.643C175.312 141.493 175.312 141.192 175.463 141.041C175.613 140.891 175.914 140.891 176.065 141.041C176.366 141.342 206.311 174.899 229.936 181.971C230.237 181.971 230.387 182.272 230.237 182.573C230.237 182.874 229.936 183.025 229.635 182.874C206.01 175.802 175.764 141.944 175.463 141.643Z" fill="#001965"/>
<path d="M482.907 78.5593L128.065 112.854L136.765 202.875L491.607 168.58L482.907 78.5593Z" fill="white" stroke="#001965" stroke-miterlimit="10"/>
<path d="M510.593 92.4098L155.751 126.704L164.452 216.725L519.293 182.431L510.593 92.4098Z" fill="white" stroke="#001965" stroke-miterlimit="10"/>
<path d="M510.489 92.4904L155.813 126.799L127.975 112.955L482.801 78.6464L510.489 92.4904Z" fill="white" stroke="#001965" stroke-miterlimit="10"/>
<path d="M136.703 202.941L164.391 216.785L155.813 126.799L127.975 112.955L136.703 202.941Z" fill="#001965" stroke="#001965" stroke-miterlimit="10"/>
<path d="M512.643 92.8031L157.801 127.097L166.501 217.118L521.343 182.824L512.643 92.8031Z" fill="white" stroke="#001965" stroke-miterlimit="10"/>
<path d="M540.329 106.653L185.487 140.948L194.188 230.969L549.029 196.675L540.329 106.653Z" fill="white" stroke="#001965" stroke-miterlimit="10"/>
<path d="M327.5 198.5C319.1 193.7 306.333 213.167 301 223.5L309 244L412 227L426 214.5L438.5 200L441 190L437 182L424.5 180L412 185.5L400.5 202L397 214.5L383.5 217.5L387 191L382 183L371 181.5C368.333 183.5 362.2 188.2 359 191C355.8 193.8 353.667 208.167 353 215L351.5 216L342.5 223.5L336 231L331 230L336 210.5C338.4 203.7 331.333 199.667 327.5 198.5Z" fill="#F3F4F5"/>
<path d="M540.371 106.732L185.545 141.041L157.707 127.047L512.533 92.738L540.371 106.732Z" fill="white" stroke="#001965" stroke-miterlimit="10"/>
<path d="M166.434 217.032L194.273 231.027L185.545 141.041L157.707 127.047L166.434 217.032Z" fill="#001965" stroke="#001965" stroke-miterlimit="10"/>
<path d="M504.065 1.07241L149.224 35.3666L157.924 125.388L512.765 91.0934L504.065 1.07241Z" fill="white" stroke="#001965" stroke-miterlimit="10"/>
<path d="M531.901 14.9083L177.06 49.2025L185.76 139.223L540.602 104.929L531.901 14.9083Z" fill="white" stroke="#001965" stroke-miterlimit="10"/>
<path d="M531.794 14.9944L176.967 49.3033L149.28 35.3089L504.106 1L531.794 14.9944Z" fill="white" stroke="#001965" stroke-miterlimit="10"/>
<path d="M158.007 125.295L185.695 139.289L176.967 49.3033L149.28 35.3089L158.007 125.295Z" fill="#001965" stroke="#001965" stroke-miterlimit="10"/>
<path d="M264.395 237.949C263.793 237.347 263.793 236.294 264.395 235.541C264.546 235.391 278.54 218.236 297.199 229.372C298.102 229.974 298.403 231.027 297.801 231.93C297.199 232.833 296.146 233.134 295.243 232.532C279.443 223.052 267.856 237.196 267.405 237.798C266.803 238.551 265.599 238.701 264.696 238.099C264.546 238.099 264.395 238.099 264.395 237.949Z" fill="#001965"/>
<path d="M0.45753 184.228C0.0060971 183.626 -0.144381 182.874 0.156575 182.272C0.608008 181.369 1.66135 180.918 2.71469 181.369C10.2386 184.83 127.009 217.634 129.116 219.29C129.266 219.29 129.266 219.44 129.417 219.44C142.659 233.886 218.199 261.724 239.867 267.894C259.43 273.462 288.923 262.326 306.379 255.705L306.679 255.555C323.834 249.084 331.659 218.989 331.809 218.688V218.537C334.367 211.916 334.518 206.8 332.411 203.79C330.455 200.931 326.843 200.63 326.242 200.63C306.529 203.189 297.801 235.692 297.801 235.993C297.5 237.046 296.447 237.648 295.544 237.347C294.491 237.046 293.889 235.993 294.19 235.09C294.641 233.585 303.67 199.728 325.941 196.868H326.091C326.392 196.868 332.261 196.868 335.571 201.684C338.43 205.747 338.43 211.916 335.421 219.892C334.819 222.149 326.543 252.244 308.034 259.166L307.733 259.317C289.676 266.088 259.58 277.524 238.814 271.656C220.907 266.54 141.906 238.4 126.859 222.299C124.301 220.794 18.6653 192.806 1.3604 184.83C0.908963 184.529 0.608008 184.379 0.45753 184.228Z" fill="#001965"/>
<path d="M304.723 259.768C304.422 259.467 304.272 258.865 304.272 258.414C304.272 257.36 305.175 256.608 306.228 256.608C306.529 256.608 329.401 258.113 342.794 257.21C353.026 256.458 365.817 241.56 372.739 233.585C374.545 231.478 376.05 229.823 377.103 228.77C380.413 225.459 383.423 208.154 384.476 198.072C385.078 192.053 384.025 187.99 381.316 185.884C377.103 182.573 369.88 184.529 368.676 184.981C352.124 194.461 355.133 219.44 355.133 219.741C355.284 220.794 354.531 221.697 353.478 221.848C352.425 221.998 351.522 221.246 351.371 220.193C351.221 218.989 347.91 192.204 367.021 181.67C367.171 181.67 367.171 181.52 367.322 181.52C367.773 181.369 377.404 178.059 383.573 183.025C387.335 186.034 388.84 191.301 388.088 198.674C387.787 201.533 384.928 226.513 379.511 231.779C378.608 232.682 377.103 234.337 375.448 236.444C367.623 245.473 354.682 260.37 342.944 261.273C329.251 262.326 306.83 260.821 305.777 260.671C305.476 260.37 305.024 260.22 304.723 259.768Z" fill="#001965"/>
<path d="M330.154 232.381C329.853 232.08 329.702 231.478 329.702 231.027C329.702 229.974 330.605 229.221 331.659 229.221L335.12 229.522C337.527 223.503 348.813 215.678 351.221 214.173C352.124 213.572 353.177 213.872 353.779 214.625C354.381 215.528 354.08 216.732 353.327 217.183C347.308 221.246 338.581 228.469 338.43 231.629C338.43 232.08 338.129 232.532 337.828 232.983C337.377 233.284 336.925 233.435 336.474 233.435L331.508 233.134C330.906 232.983 330.455 232.833 330.154 232.381Z" fill="#001965"/>
<path d="M364.463 246.075C364.162 245.623 363.861 245.172 364.011 244.57C364.162 243.517 365.215 242.915 366.118 243.065C366.118 243.065 371.535 243.968 379.209 244.419C384.175 244.72 401.48 231.478 410.659 224.406C414.722 221.246 417.882 218.838 419.838 217.634C426.008 213.722 432.93 202.587 433.08 202.587C433.231 202.436 433.231 202.286 433.381 202.135C441.808 194.762 438.648 187.84 438.498 187.539C437.294 185.282 435.338 183.777 432.93 183.025C425.557 180.918 415.475 186.185 414.421 186.787C402.834 195.063 400.126 209.509 400.126 209.659C399.975 210.712 398.922 211.314 397.869 211.164C396.815 211.013 396.213 209.96 396.364 208.907C396.514 208.305 399.373 192.655 412.315 183.476C412.315 183.476 412.465 183.476 412.465 183.326C412.916 183.025 424.654 176.554 433.983 179.263C437.444 180.316 440.153 182.423 441.959 185.733C442.26 186.185 446.623 195.364 436.24 204.693C435.187 206.499 428.416 216.581 421.945 220.794C420.29 221.848 416.979 224.406 413.067 227.415C397.869 239.002 384.928 248.633 379.059 248.181C371.385 247.73 365.967 246.677 365.666 246.677C365.065 246.677 364.764 246.376 364.463 246.075Z" fill="#001965"/>
<path d="M242.275 244.269C242.124 244.118 242.124 243.968 242.275 243.667C242.877 242.764 255.818 219.892 271.768 216.882C272.069 216.882 272.22 217.032 272.37 217.183C272.37 217.484 272.22 217.634 272.069 217.785C256.42 220.794 243.328 243.817 243.178 244.118C242.877 244.419 242.576 244.57 242.275 244.269C242.275 244.419 242.275 244.419 242.275 244.269Z" fill="#001965"/>
<path d="M230.237 229.372C230.086 229.221 230.086 228.92 230.237 228.77C230.839 228.017 244.983 211.916 253.862 211.916C254.163 211.916 254.313 212.067 254.313 212.368C254.313 212.669 254.163 212.819 253.862 212.819C245.284 212.819 230.989 229.221 230.839 229.372C230.688 229.522 230.387 229.522 230.237 229.372Z" fill="#001965"/>
<path d="M323.232 227.566C322.63 226.964 322.329 226.362 322.028 225.61C320.523 221.848 322.63 217.634 324.135 214.474C324.436 213.722 324.737 213.12 325.038 212.669C326.843 208.305 333.314 209.057 333.464 209.057C333.765 209.057 333.916 209.358 333.916 209.509C333.916 209.81 333.615 209.96 333.464 209.96C333.464 209.96 327.445 209.358 325.941 212.97C325.79 213.572 325.339 214.173 325.038 214.926C323.533 217.935 321.577 221.998 322.931 225.309C323.683 227.265 325.489 228.77 328.348 229.823C328.649 229.974 328.649 230.124 328.649 230.425C328.499 230.726 328.348 230.726 328.047 230.726C325.79 229.823 324.285 228.77 323.232 227.566Z" fill="#001965"/>
<path d="M375.147 212.669C373.491 210.863 373.04 207.402 373.792 203.339C375.147 195.815 384.476 191.752 384.777 191.451C385.078 191.301 385.229 191.451 385.379 191.752C385.53 192.053 385.379 192.204 385.078 192.354C384.928 192.354 375.899 196.417 374.545 203.49C373.792 207.853 374.394 211.164 376.2 212.518C377.554 213.572 379.661 213.421 382.37 212.067C382.671 211.916 382.821 212.067 382.972 212.217C383.122 212.518 382.972 212.669 382.821 212.819C379.059 214.775 376.952 214.023 375.749 213.12C375.598 213.12 375.297 212.819 375.147 212.669Z" fill="#001965"/>
<path d="M424.353 212.067C423.901 211.615 423.751 211.164 423.6 210.562C423.299 208.455 425.406 206.048 427.663 203.49C428.566 202.436 429.469 201.383 430.221 200.48C433.381 196.116 437.444 196.869 437.595 196.869C437.896 196.869 438.046 197.169 437.896 197.47C437.896 197.771 437.595 197.922 437.294 197.771C437.143 197.771 433.682 197.019 430.823 200.931C430.071 201.985 429.168 203.038 428.265 204.091C426.309 206.349 424.202 208.606 424.503 210.411C424.654 211.164 425.105 211.766 426.008 212.217C426.158 212.368 426.309 212.669 426.158 212.819C426.008 213.12 425.707 213.12 425.557 212.97C425.256 212.819 424.804 212.368 424.353 212.067Z" fill="#001965"/>
<path d="M154.396 89.578C97.6662 86.7189 33.1113 86.2675 31.3055 86.4179C30.2522 86.5684 29.4998 87.4713 29.6503 88.5246C29.6503 88.9761 29.8008 89.277 30.1017 89.578C30.5531 90.0294 31.1551 90.3304 31.757 90.1799C32.2084 90.1799 97.6662 90.0294 154.697 92.8885L154.396 89.578Z" fill="#001965"/>
</svg>
