<svg width="156" height="199" viewBox="0 0 156 199" fill="none" xmlns="http://www.w3.org/2000/svg">
<path fill-rule="evenodd" clip-rule="evenodd" d="M73.2727 101H47C44.2386 101 42 103.239 42 106C42 108.761 44.2386 111 47 111H75C75.6305 111 76.2337 110.883 76.7892 110.67L76.6183 110.2C76.1161 110.394 75.5704 110.5 75 110.5H47C44.5147 110.5 42.5 108.485 42.5 106C42.5 103.515 44.5147 101.5 47 101.5H73.4545L73.2727 101Z" fill="#001965"/>
<path fill-rule="evenodd" clip-rule="evenodd" d="M72.2 96L72 95.5H47C44.5147 95.5 42.5 93.4853 42.5 91C42.5 88.5147 44.5147 86.5 47 86.5H69.0769L68.9615 86H47C44.2386 86 42 88.2386 42 91C42 93.7614 44.2386 96 47 96H72.2Z" fill="#001965"/>
<path d="M70.7167 52.089C71.137 53.9734 71.6051 55.8457 72.1165 57.7086C72.3593 58.5959 72.6049 59.4875 72.8521 60.372C73.0924 61.2362 73.2462 62.2733 73.6925 63.0545C73.796 63.2349 74.0588 63.1155 74.0504 62.9295C74.0189 62.0732 73.6242 61.1415 73.386 60.3191C73.118 59.3925 72.8456 58.4687 72.5803 57.5465C72.0383 55.7032 71.4557 53.8736 70.8297 52.0534C70.8007 51.9795 70.7021 52.0181 70.7167 52.089Z" fill="#001965"/>
<path d="M69.7503 54.6111C69.7958 55.5757 70.0882 56.5978 70.3694 57.516C70.476 57.855 70.9516 57.6729 70.8809 57.3418C70.6793 56.4033 70.4272 55.3862 69.9981 54.526C69.937 54.3924 69.7438 54.4856 69.7503 54.6111Z" fill="#001965"/>
<path d="M68.5726 55.4108C68.6267 55.9563 68.6149 56.5627 68.7745 57.0898C68.7976 57.1738 68.8911 57.2618 68.9804 57.2662C69.0278 57.2728 69.0725 57.275 69.1174 57.2584C69.2291 57.2114 69.3072 57.1118 69.2979 56.982C69.2697 56.4384 69.0517 55.8685 68.9152 55.3388C68.8638 55.1435 68.5514 55.2145 68.5726 55.4108Z" fill="#001965"/>
<path d="M62.071 45.3088C61.6803 45.3252 61.2902 45.3906 60.9032 45.4416C60.6751 45.4709 60.621 45.8575 60.8815 45.8691C61.2716 45.8902 61.6686 45.9315 62.0621 45.9195C62.3879 45.9077 62.7586 45.9659 62.9497 45.658C62.9778 45.6152 62.9675 45.5416 62.9394 45.4979C62.7339 45.2163 62.3753 45.2923 62.071 45.3088Z" fill="#001965"/>
<path d="M62.4412 47.8551C62.0056 47.5422 61.4407 47.7199 60.9579 47.814C60.5619 47.8893 60.5795 48.4645 61.0033 48.4515C61.4876 48.4367 62.1077 48.4891 62.4573 48.0916C62.516 48.0292 62.5123 47.9081 62.4412 47.8551Z" fill="#001965"/>
<path d="M60.527 51.3811C60.2168 51.321 59.9132 51.3 59.5952 51.2759C59.0959 51.2386 58.9384 51.9447 59.4507 52.0601C59.7593 52.1273 60.058 52.1885 60.37 52.2227C60.6418 52.2518 61.0216 52.2856 61.2186 52.0541C61.2745 51.9874 61.3051 51.8813 61.2661 51.8014C61.1355 51.5211 60.8084 51.4348 60.527 51.3811Z" fill="#001965"/>
<path d="M35.4834 138.436C35.2115 138.436 32.6286 138.368 30.3854 136.193C28.2783 134.154 27.2587 130.959 27.2587 126.812V70.8024C27.2587 70.1907 27.7345 69.7149 28.3462 69.7149C28.958 69.7149 29.4338 70.1907 29.4338 70.8024V126.812C29.4338 130.415 30.2495 133.066 31.9488 134.697C33.5802 136.329 35.5514 136.329 35.5514 136.329H50.7774C51.3892 136.329 51.865 136.804 51.865 137.416C51.865 138.028 51.3892 138.504 50.7774 138.504H35.4834C35.4834 138.436 35.4834 138.436 35.4834 138.436Z" fill="#001965"/>
<path d="M81.9092 138.436H69.0622C68.4505 138.436 67.9747 137.96 67.9747 137.348C67.9747 136.736 68.4505 136.261 69.0622 136.261H81.9092C82.5209 136.261 82.9968 136.736 82.9968 137.348C82.9288 137.96 82.453 138.436 81.9092 138.436Z" fill="#001965"/>
<path d="M28.2782 46.1961C27.6665 46.1961 27.1907 45.7203 27.1907 45.1085V12.5493C27.1907 8.335 28.2103 5.20823 30.3174 3.16904C32.6285 0.925919 35.4154 0.925919 35.4834 0.925919H64.1681C64.7799 0.925919 65.2557 1.40173 65.2557 2.01349C65.2557 2.62525 64.7799 3.10106 64.1681 3.10106H35.4834C35.3475 3.10106 33.4442 3.10106 31.8129 4.80039C30.1815 6.43175 29.3658 9.08271 29.3658 12.6173V45.1765C29.3658 45.7203 28.89 46.1961 28.2782 46.1961Z" fill="#001965"/>
<path d="M92.309 41.0301C91.6973 41.0301 91.2215 40.5543 91.2215 39.9426V12.5493C91.2215 8.94676 90.4058 6.29581 88.7065 4.66445C87.0751 3.03309 85.0359 3.03309 85.1039 3.03309H56.3512C55.7394 3.03309 55.2636 2.55728 55.2636 1.94552C55.2636 1.33376 55.8074 0.925919 56.3512 0.925919H85.1039C85.1718 0.925919 87.9587 0.925919 90.2698 3.16904C92.377 5.20823 93.3966 8.40298 93.3966 12.5493V39.9426C93.3966 40.5543 92.9208 41.0301 92.309 41.0301Z" fill="#001965"/>
<path d="M92.3091 63.3933C91.6973 63.3933 91.2215 62.9175 91.2215 62.3058V57.6156C91.2215 57.0039 91.6973 56.528 92.3091 56.528C92.9208 56.528 93.3966 57.0039 93.3966 57.6156V62.3058C93.3966 62.9175 92.9208 63.3933 92.3091 63.3933Z" fill="#001965"/>
<path d="M92.3091 87.252C91.6973 87.252 91.2215 86.7761 91.2215 86.1644V75.9004C91.2215 75.2887 91.6973 74.8129 92.3091 74.8129C92.9208 74.8129 93.3966 75.2887 93.3966 75.9004V86.1644C93.3966 86.7761 92.9208 87.252 92.3091 87.252Z" fill="#001965"/>
<path d="M80.2098 122.258H31.337C30.9972 122.258 30.7253 121.986 30.7253 121.646V17.7153C30.7253 17.3754 30.9972 17.1036 31.337 17.1036H89.2502C89.5901 17.1036 89.862 17.3754 89.862 17.7153V96.5643C89.862 96.9042 89.5901 97.1761 89.2502 97.1761C88.9104 97.1761 88.6385 96.9042 88.6385 96.5643V18.395H32.0168V120.967H80.2098C80.5497 120.967 80.8216 121.239 80.8216 121.578C80.8216 121.986 80.5497 122.258 80.2098 122.258Z" fill="#001965"/>
<path d="M0.817051 199C0.749078 199 0.613132 199 0.545158 198.932C0.137319 198.796 -0.134574 198.252 0.0693456 197.844C0.205292 197.437 15.1594 156.925 10.6732 141.155C10.1974 140.339 7.5464 135.309 5.7791 123.346C5.16734 119.335 4.41963 115.393 3.60396 111.586C1.90462 103.022 0.545159 96.2924 2.24449 93.3016C4.35166 89.563 8.09019 76.5801 8.36208 72.6377C8.43006 71.754 8.43006 70.8704 8.36208 70.0547C8.29411 67.1998 8.15816 64.209 11.8287 61.694C13.0522 60.8783 14.6836 58.2953 16.3829 55.6444C19.6456 50.6823 23.2482 44.9726 27.2587 44.6327C28.7541 44.4968 30.1815 45.1085 31.405 46.4C31.541 46.536 31.6089 46.7399 31.6089 47.0118V63.8692V63.9371C30.3854 76.7841 16.111 75.7645 15.9751 75.7645C15.4993 75.6965 15.1594 75.2887 15.1594 74.8808C15.2274 74.405 15.5673 74.0651 16.0431 74.0651C16.5868 74.1331 28.7541 74.8808 29.8416 63.8012V47.2837C29.026 46.536 28.2103 46.1961 27.3266 46.2641C24.1319 46.536 20.5973 52.0418 17.6744 56.528C15.7712 59.4509 14.0718 62.0339 12.6444 63.0535C9.72155 65.0927 9.78952 67.2678 9.92547 69.9867C9.92547 70.8704 9.99344 71.754 9.92547 72.7736C9.65357 76.92 5.84707 90.1748 3.60396 94.1852C2.17652 96.6323 3.67193 103.769 5.16734 111.314C5.91505 115.121 6.73072 119.131 7.34248 123.142C9.17776 135.513 12.0326 140.339 12.0326 140.407C12.1006 140.475 12.1006 140.543 12.1006 140.611C16.8587 156.857 2.10854 196.757 1.49678 198.456C1.42881 198.796 1.15692 199 0.817051 199Z" fill="#001965"/>
<path d="M50.7094 199C50.6415 199 50.6415 199 50.5735 199C50.0977 198.932 49.7578 198.524 49.8258 198.048C50.3016 194.786 54.6519 166.305 59.7499 162.362C60.0898 162.091 60.6335 162.158 60.9734 162.498C61.2453 162.838 61.1773 163.382 60.8375 163.722C56.963 166.713 52.8166 189.688 51.5931 198.32C51.5251 198.66 51.1173 199 50.7094 199Z" fill="#001965"/>
<path d="M72.9367 147.068C72.7328 147.068 72.5288 147 72.3929 146.865C72.053 146.525 72.053 145.981 72.3249 145.641L79.802 137.552C80.1418 137.212 80.6856 137.212 81.0255 137.484C81.3654 137.824 81.3654 138.368 81.0935 138.708L73.6164 146.797C73.4125 146.932 73.1406 147.068 72.9367 147.068Z" fill="#001965"/>
<path d="M81.3654 199C81.1614 199 80.9575 198.932 80.8216 198.796C79.5301 197.709 68.2465 187.852 67.3629 183.978C66.5472 180.307 59.0022 161.139 57.3708 157.604L57.2348 157.264C56.1473 154.953 55.7394 154.138 55.3316 151.759C55.2636 151.283 54.7878 149.923 54.1761 148.428C51.4571 141.019 49.0781 133.474 51.661 130.755C51.729 130.687 53.5643 128.852 56.895 129.056C61.3132 129.395 66.2073 133.066 71.3053 140.067C71.3733 140.135 71.3733 140.135 71.3733 140.203C71.5092 140.475 74.636 147.408 75.3837 151.351C77.3549 155.089 80.6856 160.459 82.1131 160.867C82.5889 161.003 82.8608 161.479 82.7248 161.887C82.5889 162.362 82.1131 162.566 81.7052 162.498C78.9863 161.751 74.704 153.594 73.8883 151.962C73.8203 151.895 73.8203 151.827 73.8203 151.759C73.2086 148.292 70.2857 141.767 69.9458 140.951C64.0322 132.862 59.6139 130.959 56.963 130.755C54.4479 130.551 53.0885 131.842 53.0205 131.91C50.9133 134.086 54.244 143.398 55.8754 147.816C56.4871 149.583 56.963 150.807 57.0989 151.487C57.5067 153.662 57.7786 154.342 58.8662 156.585L59.0022 156.925C60.7015 160.527 68.2465 179.9 69.1302 183.638C69.7419 186.153 77.151 193.29 82.0451 197.505C82.385 197.844 82.4529 198.32 82.1131 198.728C81.8412 198.864 81.6372 199 81.3654 199Z" fill="#001965"/>
<path d="M83.0647 172.015C82.6568 172.015 82.249 171.675 82.249 171.267C82.181 170.927 81.2294 163.518 82.249 155.973C83.1326 149.244 81.7052 134.833 81.0255 129.871C80.6176 126.676 78.1706 115.529 73.6164 103.226C72.2569 99.895 60.4296 70.5985 70.0138 66.1802C70.3537 65.9763 71.917 65.1606 74.0922 65.9763C77.8987 67.3358 81.2974 72.5697 84.0843 81.4742C84.4921 82.4938 94.0084 107.304 94.7561 109.751L94.824 110.023C98.2907 121.85 102.437 127.56 105.292 130.279C105.632 130.619 105.632 131.163 105.36 131.503C105.02 131.842 104.476 131.842 104.136 131.571C101.078 128.716 96.7273 122.802 93.1927 110.567L93.1247 110.295C92.445 107.916 82.5889 82.3579 82.5209 82.154C79.1902 71.6861 75.7915 68.4913 73.5484 67.6757C71.9171 67.1319 70.8974 67.7436 70.8974 67.7436C70.8295 67.7436 70.8295 67.8116 70.7615 67.8116C63.8282 70.9384 71.5772 94.0493 75.1798 102.682C80.2778 116.48 82.3849 127.492 82.6568 129.735C82.6568 129.939 84.9679 147.952 83.8803 156.245C82.9287 163.586 83.8803 170.995 83.8803 171.063C83.9483 171.539 83.6084 171.947 83.1326 172.015C83.1326 172.015 83.1326 172.015 83.0647 172.015Z" fill="#001965"/>
<path d="M126.364 136.533C125.956 136.533 125.548 136.193 125.548 135.785C125.276 133.61 122.149 130.891 119.838 128.852C118.819 127.968 117.935 127.152 117.391 126.541L117.051 126.133C115.148 123.89 109.438 117.092 105.428 115.597C101.621 114.169 98.1548 119.675 98.1548 119.743C97.8829 120.151 97.4071 120.287 96.9992 120.015C96.5914 119.743 96.4554 119.267 96.7273 118.86C96.8633 118.588 100.942 112.062 106.108 114.033C110.594 115.733 116.304 122.53 118.479 125.045L118.819 125.453C119.294 125.997 120.11 126.744 121.13 127.56C123.781 129.871 127.043 132.726 127.383 135.581C127.451 136.057 127.111 136.465 126.636 136.533C126.432 136.533 126.432 136.533 126.364 136.533Z" fill="#001965"/>
<path d="M155.048 197.573C154.573 197.573 154.233 197.233 154.165 196.757L153.485 149.515C153.349 137.28 140.842 137.144 140.298 137.144C139.958 137.144 139.619 136.94 139.551 136.601C137.171 131.027 132.006 131.571 131.802 131.571C131.734 131.571 131.666 131.571 131.598 131.571L121.266 129.871C120.79 129.803 120.518 129.327 120.586 128.92C120.654 128.444 121.13 128.172 121.538 128.24L131.802 129.939C132.753 129.871 138.191 129.803 140.978 135.513C143.697 135.717 155.184 137.212 155.32 149.515L156 196.757C155.864 197.165 155.524 197.573 155.048 197.573Z" fill="#001965"/>
<path d="M98.6985 62.1698C98.2227 62.1698 97.8149 61.762 97.8149 61.2862V58.5672C97.8149 58.2954 97.9508 58.0914 98.1548 57.8875C101.078 55.5764 101.485 50.7503 101.553 50.6823C102.437 41.7778 97.2711 40.7583 97.2031 40.7583C97.1352 40.7583 94.0764 40.2145 92.513 41.5739C91.8332 42.1857 91.5614 43.0693 91.6293 44.3608C91.6293 44.4288 91.6293 44.4968 91.6293 44.5648C91.2895 47.0118 90.8816 53.8091 92.9888 56.1202C93.4646 56.664 94.0084 56.8679 94.7561 56.7999C95.2319 56.7999 95.6398 57.1398 95.6398 57.6156C95.6398 58.0914 95.2999 58.4993 94.8241 58.4993C93.6006 58.5672 92.581 58.1594 91.7653 57.2078C88.8424 54.013 89.794 45.7203 89.998 44.3608C89.862 42.5935 90.4058 41.2341 91.4254 40.2824C93.6006 38.3112 97.4071 39.0589 97.543 39.0589C97.611 39.0589 104.34 40.3504 103.321 50.8183C103.321 51.0222 102.845 56.1202 99.6502 58.9071V61.2182C99.5822 61.83 99.1744 62.1698 98.6985 62.1698Z" fill="#001965"/>
<path d="M104.816 83.0376C104.544 83.0376 104.34 82.9017 104.136 82.6978C103.865 82.3579 103.933 81.8141 104.272 81.4742C106.583 79.571 108.691 73.6573 105.7 66.86C103.049 60.8104 95.7078 62.9855 95.3679 63.1215C95.2999 63.1215 95.2319 63.1894 95.096 63.1894C93.6686 63.1894 92.513 63.5973 91.8333 64.4809C90.3379 66.2482 90.6777 69.239 90.6777 69.307C90.7457 69.7828 90.4058 70.1907 89.93 70.2586C89.4542 70.3266 89.0464 69.9868 88.9784 69.5109C88.9784 69.375 88.5026 65.7044 90.5418 63.3933C91.5614 62.1698 93.1248 61.5581 94.9601 61.5581C98.1548 60.6064 104.68 60.4025 107.195 66.3162C110.186 73.2495 108.555 80.3187 105.224 82.9696C105.156 82.9696 105.02 83.0376 104.816 83.0376Z" fill="#001965"/>
<path d="M97.0672 76.8521C95.028 76.8521 92.9209 76.5122 91.3575 75.0847C89.93 73.7933 89.2503 71.89 89.2503 69.307C89.2503 68.9672 89.5222 68.6953 89.8621 68.6953C90.2019 68.6953 90.4738 68.9672 90.4738 69.307C90.4738 71.4822 91.0176 73.1135 92.1732 74.1331C94.3483 76.0364 98.2228 75.5606 100.602 75.2887H100.738C103.729 74.8808 104.204 73.9972 104.204 73.9972C104.34 73.6573 104.68 73.5214 105.02 73.5893C105.36 73.7253 105.496 74.0651 105.428 74.405C105.36 74.6769 104.68 76.0364 100.942 76.5122H100.806C99.7182 76.7161 98.4267 76.8521 97.0672 76.8521Z" fill="#001965"/>
<path d="M96.4555 118.18C96.3195 118.18 96.1156 118.112 95.9797 118.044C95.5718 117.772 95.4359 117.296 95.7078 116.888C95.7757 116.82 101.553 107.576 107.331 100.439C112.633 93.8454 105.904 85.2128 105.836 85.1448C102.369 80.6586 95.7078 85.2807 95.6398 85.2807C95.5718 85.2807 95.5718 85.3487 95.5038 85.3487C93.6006 86.2324 92.513 87.3879 92.1052 88.8154C91.4934 91.1264 92.9888 93.3696 92.9888 93.4375C93.0568 93.5055 93.9405 94.9329 96.1156 95.3408C98.5626 95.8166 101.621 94.729 105.02 92.35C105.428 92.0781 105.904 92.146 106.176 92.5539C106.448 92.9617 106.38 93.4375 105.972 93.7094C102.097 96.4963 98.6306 97.5839 95.7078 96.9721C92.8529 96.4284 91.6294 94.4571 91.5614 94.3892C91.4934 94.3212 89.5902 91.4663 90.4058 88.4075C90.9496 86.5043 92.3771 85.0088 94.6882 83.9213C97.4751 82.018 103.593 79.571 107.127 84.1252C107.195 84.1932 114.74 93.9133 108.623 101.594C102.913 108.664 97.2032 117.772 97.1352 117.84C97.0672 118.044 96.7953 118.18 96.4555 118.18Z" fill="#001965"/>
<path d="M92.3091 104.925C91.6973 104.925 91.2215 104.449 91.2215 103.837V94.4571C91.2215 93.8454 91.6973 93.3696 92.3091 93.3696C92.9208 93.3696 93.3966 93.8454 93.3966 94.4571V103.837C93.3966 104.449 92.9208 104.925 92.3091 104.925Z" fill="#001965"/>
<path d="M28.2782 95.0689C27.9384 95.0689 27.6665 94.797 27.6665 94.4571C27.5985 93.9813 26.375 90.7186 25.3554 87.7958C25.2874 87.7278 25.2874 87.5918 25.2874 87.5239C25.2874 87.4559 26.1031 79.435 25.3554 72.6377C25.2874 72.2978 25.5593 71.958 25.8992 71.958C26.239 71.89 26.5789 72.1619 26.5789 72.5018C27.2586 78.8913 26.5789 86.3683 26.5109 87.4559C28.89 93.8454 28.89 94.2532 28.89 94.3212C28.89 94.797 28.6181 95.0689 28.2782 95.0689Z" fill="#001965"/>
<path d="M20.1894 56.4601C18.9659 56.4601 17.7424 55.3725 17.6744 55.3725C17.6064 55.3045 17.6064 55.1686 17.6744 55.1006C17.7424 55.0326 17.8783 55.0326 17.9463 55.1006C17.9463 55.1006 19.3058 56.2562 20.4613 56.0522C20.9371 55.9843 21.277 55.6444 21.6168 55.1686C21.8208 54.8287 22.0247 54.4209 22.2286 54.013C23.5201 51.7699 25.4233 48.3713 24.6077 47.0798C24.5397 47.0118 24.6077 46.8758 24.6756 46.8079C24.7436 46.7399 24.8796 46.8079 24.9475 46.8758C25.8992 48.3713 24.0639 51.634 22.5685 54.217C22.3645 54.6248 22.1606 54.9647 21.9567 55.3045C21.6168 55.9163 21.141 56.3241 20.5293 56.4601C20.4613 56.4601 20.3253 56.4601 20.1894 56.4601Z" fill="#001965"/>
<path d="M17.8104 93.9133C17.7424 93.9133 17.6064 93.8454 17.6064 93.7774C17.5385 93.6415 17.6064 93.5735 17.7424 93.5055C17.8104 93.5055 23.3842 91.4663 25.6953 87.5918C25.7632 87.5239 25.8992 87.4559 25.9671 87.5239C26.0351 87.5918 26.1031 87.7278 26.0351 87.7958C23.6561 91.8741 18.0823 93.8454 17.8104 93.9133C17.8783 93.9133 17.8783 93.9133 17.8104 93.9133Z" fill="#001965"/>
<path d="M53.9721 143.262C53.9042 143.262 53.9042 143.262 53.8362 143.194C53.7682 143.126 53.7002 142.99 53.8362 142.922C55.6035 140.747 59.1381 139.659 60.0218 139.387C59.7499 138.504 59.5459 137.756 59.342 137.076C58.3904 133.542 58.0505 132.318 55.4675 132.25C52.3408 132.114 51.5931 134.493 51.5931 134.493C51.5251 134.629 51.4571 134.697 51.3212 134.629C51.1852 134.561 51.1173 134.493 51.1852 134.357C51.1852 134.357 52.0689 131.639 55.5355 131.774C58.4584 131.91 58.8662 133.406 59.8178 136.94C60.0218 137.688 60.2257 138.504 60.4976 139.455C60.4976 139.523 60.4976 139.591 60.4976 139.591C60.4976 139.659 60.4296 139.659 60.3616 139.659C60.2937 139.659 56.0793 140.815 54.1761 143.126C54.1081 143.262 54.0401 143.262 53.9721 143.262Z" fill="#001965"/>
<path d="M41.669 141.427C41.601 141.427 41.601 141.427 41.533 141.427C41.465 141.359 41.3971 141.223 41.465 141.155C41.465 141.155 42.4846 139.591 43.0284 138.096C43.0964 137.96 43.1644 137.96 43.3003 137.96C43.4363 138.028 43.4363 138.096 43.4363 138.232C42.8925 139.795 41.8729 141.359 41.8729 141.427C41.8049 141.427 41.7369 141.427 41.669 141.427Z" fill="#001965"/>
<path d="M71.9851 76.4442C71.6452 76.4442 71.3733 76.3083 71.1014 76.0364C70.1498 75.0168 70.1498 72.1619 70.3537 70.0547C70.6256 67.3358 74.2961 67.4717 74.2961 67.4717C74.4321 67.4717 74.5001 67.6077 74.5001 67.6757C74.5001 67.8116 74.3641 67.8796 74.2961 67.8796C74.1602 67.8796 71.0334 67.8116 70.7615 70.1227C70.4896 72.2978 70.6256 74.8808 71.3733 75.7645C71.5092 75.9684 71.7132 76.0364 71.9171 76.0364C72.5288 76.0364 73.8203 75.4246 75.1798 74.8808C77.083 74.0652 79.0543 73.1815 80.0739 73.3854C80.2098 73.3854 80.2778 73.5214 80.2098 73.6573C80.2098 73.7933 80.0739 73.8612 79.9379 73.7933C79.0543 73.5893 77.083 74.473 75.3157 75.2207C74.0243 75.9004 72.7328 76.4442 71.9851 76.4442Z" fill="#001965"/>
<path d="M97.3391 70.3266C97.2711 70.3266 97.2711 70.3266 97.2032 70.2586C97.1352 70.1907 97.1352 70.1907 97.1352 70.1227C96.9313 67.4038 92.7849 64.0051 92.7849 63.9371C92.7169 63.8692 92.7169 63.8012 92.7169 63.7332C92.7169 63.6652 92.7849 63.5973 92.9208 63.5973L97.3391 62.9855H97.4071C101.417 64.1411 101.485 69.307 101.485 69.375C101.485 69.443 101.417 69.5789 101.282 69.5789L97.3391 70.3266ZM93.3967 63.9371C94.4163 64.8208 97.1352 67.4717 97.543 69.8508L101.078 69.1711C101.01 68.2874 100.602 64.345 97.3391 63.3933L93.3967 63.9371Z" fill="#001965"/>
<path d="M97.3391 90.8545H97.2711C97.2031 90.8545 97.1352 90.7866 97.1352 90.7186C96.7953 88.6794 93.9404 86.3683 93.9404 86.3683C93.8725 86.3003 93.8045 86.1644 93.9404 86.0964C94.0084 86.0284 94.1443 85.9605 94.2123 86.0964C94.3483 86.1644 96.9313 88.3395 97.543 90.4467L99.8541 89.0872C99.9221 88.4755 100.194 85.2128 96.9992 83.9213C96.8633 83.8533 96.8633 83.7853 96.8633 83.6494C96.9313 83.5134 96.9992 83.5134 97.1352 83.5134C100.942 85.0088 100.262 89.2232 100.262 89.2232C100.262 89.2912 100.194 89.3591 100.126 89.3591L97.475 90.8545C97.4071 90.8545 97.3391 90.8545 97.3391 90.8545Z" fill="#001965"/>
<path d="M41.3791 69.1132C39.3026 71.8483 42.0736 75.797 45.2333 75.6995C45.6918 75.6828 45.7538 74.9145 45.2761 74.8819C43.9376 74.7971 42.693 74.2818 41.9625 73.0966C41.2405 71.9245 41.3562 70.5477 41.7121 69.2759C41.7627 69.0952 41.4897 68.9681 41.3791 69.1132Z" fill="#001965"/>
<path d="M38.008 71.2169C38.1221 70.6929 38.5333 70.2375 38.5825 69.7182C38.6053 69.4751 38.4085 69.2744 38.1551 69.3508C37.4279 69.5833 37.1245 70.6486 37.0035 71.3251C36.8471 72.2157 36.9754 73.1457 37.2881 73.9881C37.9219 75.686 39.1959 77.1023 40.7169 78.0574C41.481 78.5358 42.3178 78.8871 43.19 79.1109C43.5213 79.1943 43.9632 79.3056 44.2317 79.022C44.3931 78.8504 44.4069 78.6317 44.2646 78.4391C44.0366 78.1225 43.5326 78.1068 43.1928 78.0102C42.7282 77.8827 42.2861 77.7038 41.8546 77.4933C41.0131 77.077 40.2549 76.5022 39.6154 75.8142C38.8543 74.9944 38.2524 73.9613 38.0146 72.8608C37.9 72.3172 37.8865 71.758 38.008 71.2169Z" fill="#001965"/>
<path d="M72.1317 42.1735C71.6463 41.6581 71.0251 41.3349 70.3389 41.1893C70.0087 41.1174 69.9224 41.6173 70.2423 41.702C70.8504 41.8607 71.3821 42.1982 71.7845 42.6805C72.112 43.0751 72.1967 43.601 72.5217 43.9724C72.6362 44.1026 72.8197 44.0712 72.8716 43.902C73.0403 43.2998 72.5222 42.5893 72.1317 42.1735Z" fill="#001965"/>
<path d="M73.5799 40.5457C73.2043 40.182 72.666 39.9783 72.1464 39.9479C71.7492 39.9253 71.6157 40.4863 72.0292 40.5726C72.4168 40.657 72.716 40.8537 72.9746 41.1506C73.1823 41.3875 73.3139 41.7845 73.629 41.8907C73.7336 41.9285 73.8877 41.9283 73.9601 41.82C74.2543 41.3841 73.9087 40.8654 73.5799 40.5457Z" fill="#001965"/>
<path fill-rule="evenodd" clip-rule="evenodd" d="M67.4605 42.3591C67.9654 42.5781 68.4403 42.8656 68.8708 43.2187C70.1568 44.2693 70.9077 45.8611 71.452 47.4004C71.897 48.6669 72.2675 49.9598 72.6376 51.251C72.7944 51.798 72.9511 52.3448 73.1134 52.889C73.6361 54.6507 74.2089 56.3981 74.7816 58.1454C75.4224 60.1005 76.0631 62.0554 76.6336 64.0295C76.6907 64.2336 76.656 64.4102 76.5657 64.5485C76.6555 64.7747 76.7406 65.0226 76.7739 65.2666C76.7761 65.3084 76.7739 65.353 76.7689 65.3933C76.8322 65.4431 76.8946 65.494 76.956 65.546C75.2023 64.3714 73.4684 64 72.4999 64C71.9322 64.0227 71.3994 64.0767 70.8997 64.1592C69.6743 63.8548 68.4389 63.5962 67.1935 63.3833C63.5778 62.7614 59.7505 62.3 56.0873 62.6901C52.782 63.0415 49.1877 64.5479 47.8697 67.8391C47.3281 69.187 47.3756 70.6257 47.876 71.866C47.692 70.7435 47.8921 69.5655 48.5401 68.4887C49.7869 66.4224 51.9661 65.3559 54.288 64.9632C56.9305 64.5115 59.7154 64.6936 62.3863 64.8682C62.4815 64.8745 62.5765 64.8807 62.6714 64.8868C64.3139 64.9918 65.956 65.1515 67.5905 65.3662C67.0427 65.7151 66.5694 66.1205 66.1628 66.5707C66.1086 66.4844 66.0891 66.3939 66.0906 66.308C64.374 66.0958 62.652 65.9426 60.9276 65.8527C60.7888 65.995 60.637 66.1194 60.4853 66.2438C60.2138 66.4664 59.9425 66.6887 59.7466 67.0126C59.4072 67.5701 59.2712 68.2809 59.4145 68.9173C59.7301 70.3504 61.1219 71.3639 62.488 71.6839C63.0037 71.8055 63.5407 71.8398 64.0614 71.7789C64.0243 72.1303 64.0008 72.4844 63.9895 72.8391C63.7585 72.8577 63.5268 72.8609 63.2937 72.8517C63.5364 73.1526 63.7557 73.4747 63.945 73.779C64.0713 73.9757 63.7944 74.2461 63.6247 74.0588C63.2825 73.6799 62.9313 73.2388 62.6509 72.7831C62.4699 72.7512 62.2905 72.7121 62.1098 72.6615C61.7728 72.5693 61.432 72.4425 61.1091 72.2857C61.6063 72.954 62.0932 73.6351 62.5642 74.3203C63.0458 74.3033 63.526 74.279 64.0054 74.2496C64.022 74.5667 64.0469 74.882 64.0791 75.1939C62.1332 75.2801 60.184 75.2733 58.2436 75.1573C58.0054 75.1431 57.7647 75.1298 57.5221 75.1164C55.7054 75.0162 53.7865 74.9103 52.0737 74.355C50.5407 73.852 49.1458 72.7665 48.7769 71.1639C48.7973 72.762 49.8837 74.1074 51.2465 74.9604L51.4487 75.0157C51.4874 75.0279 51.4924 75.0741 51.469 75.0953C51.7429 75.2527 52.0216 75.3885 52.3049 75.5029C54.4569 76.3737 56.9809 76.4685 59.2939 76.5136C60.9298 76.391 62.5657 76.2684 64.2019 76.1544C64.266 76.5757 64.342 76.9872 64.4271 77.3849C63.0214 77.4577 61.6154 77.5233 60.209 77.589C59.246 77.634 58.2829 77.6789 57.3196 77.7262C57.2057 77.7315 57.1096 77.7068 57.0297 77.6593C57.0247 77.6582 57.0199 77.6577 57.0155 77.6572C57.0074 77.6562 57.0003 77.6554 56.9939 77.6515C56.9536 77.6465 56.9105 77.6371 56.8719 77.625C56.3884 77.67 55.8748 77.6296 55.4463 77.5777C54.6584 77.485 53.878 77.2887 53.1319 77.021C52.4704 76.7793 51.8445 76.4776 51.2514 76.1116C50.5772 75.7731 49.9535 75.3404 49.4026 74.7806C49.217 74.5974 49.056 74.4045 48.901 74.2016C48.3154 73.732 47.8272 73.1258 47.4823 72.4832C46.5944 70.8127 46.5951 68.9109 47.3777 67.1983C47.918 66.0116 48.7039 65.0439 49.6478 64.2647C49.993 63.0973 50.4667 61.9677 50.9382 60.8434C51.0515 60.5733 51.1646 60.3035 51.2758 60.0336C51.6943 59.0143 52.1451 58.011 52.5961 57.0073C52.861 56.4176 53.126 55.8277 53.3846 55.2345C54.6588 52.3171 56.125 49.4678 57.7206 46.7144C58.8963 44.6813 60.3838 42.4418 62.7601 41.7302C62.9136 41.681 63.0684 41.6433 63.2217 41.6127C62.3233 40.4737 63.3912 38.6766 64.9063 38.7095C66.6735 38.7411 67.4297 40.5332 66.8678 41.9745C67.0999 42.0476 67.3261 42.1307 67.5477 42.2353C67.5386 42.2596 67.5224 42.2824 67.5061 42.3052C67.4899 42.3279 67.4752 42.3435 67.4605 42.3591ZM65.7978 41.6926C66.3704 40.8927 66.0778 39.7164 64.9481 39.6395C63.9508 39.5764 63.4592 40.6947 63.8312 41.5237C64.4906 41.4643 65.1509 41.5217 65.7978 41.6926ZM48.8971 70.1978C48.8524 70.3684 48.8221 70.5423 48.8033 70.7148C48.8495 70.7098 48.891 70.7264 48.9103 70.7757C49.3255 72.114 50.311 72.9563 51.4892 73.4835C50.7346 72.5387 50.0142 71.5629 49.2951 70.5889C49.1726 70.423 49.0502 70.2572 48.9277 70.0917C48.9238 70.1096 48.9181 70.1272 48.9124 70.1447C48.9067 70.1623 48.901 70.1798 48.8971 70.1978ZM52.0704 72.3509C51.8866 72.1032 51.7028 71.8555 51.5183 71.6067C51.3308 71.3531 51.1284 71.0982 50.9235 70.8399C50.408 70.1903 49.8762 69.5202 49.5245 68.8009C49.3412 69.0729 49.1864 69.3699 49.0658 69.682C49.0686 69.6863 49.0718 69.6889 49.075 69.6915C49.0782 69.6941 49.0814 69.6966 49.0842 69.701C49.213 69.8595 49.342 70.0181 49.4712 70.1768C50.4364 71.3624 51.408 72.556 52.3095 73.7899C52.645 73.8893 52.9835 73.9743 53.3296 74.0421C53.1374 73.866 52.9848 73.6336 52.8371 73.4087C52.7657 73.3 52.6955 73.193 52.6225 73.0951C52.438 72.8463 52.2542 72.5986 52.0704 72.3509ZM52.8449 71.3848L52.8446 71.3844C52.6507 71.1223 52.4533 70.8609 52.2553 70.5988C51.5934 69.7223 50.9251 68.8375 50.3612 67.893C50.3532 67.8806 50.3482 67.8632 50.3436 67.8469C50.3417 67.8402 50.3398 67.8337 50.3378 67.8278C50.1109 68.0415 49.8951 68.2727 49.7094 68.5216C50.3393 69.0717 50.8576 69.8094 51.3589 70.5228C51.5512 70.7966 51.7411 71.0667 51.9337 71.3213C52.3115 71.8133 52.682 72.3037 53.0554 72.7984C53.1262 72.8911 53.2044 72.9833 53.2836 73.0765C53.5508 73.3914 53.8287 73.7188 53.8685 74.1219C53.8641 74.1247 53.8669 74.1291 53.8669 74.1291C53.9097 74.1348 53.952 74.1408 53.9941 74.1468C54.0849 74.1597 54.1747 74.1725 54.2651 74.1819C54.4598 74.2089 54.6567 74.2262 54.8515 74.2433C54.8939 74.2471 54.9363 74.2508 54.9785 74.2546C54.2702 73.2961 53.5576 72.3405 52.8449 71.3848ZM54.4513 70.9449C53.9301 70.2488 53.3914 69.564 52.844 68.8847C52.7574 68.7782 52.6616 68.6662 52.562 68.5498C52.1535 68.0721 51.6806 67.5192 51.5152 66.9604C51.2271 67.1269 50.9503 67.3109 50.6902 67.5212C50.7102 67.533 50.7258 67.5477 50.7414 67.5624L50.7414 67.5624C51.4996 68.3962 52.1684 69.3192 52.8325 70.2356C52.9971 70.4627 53.1614 70.6894 53.3266 70.9143C53.6094 71.299 53.892 71.6846 54.1748 72.0703C54.724 72.8196 55.2737 73.5695 55.826 74.3151C56.1787 74.3355 56.5257 74.3472 56.8727 74.3589C56.8414 74.3151 56.8104 74.2693 56.7783 74.2218C56.7484 74.1776 56.7175 74.1319 56.6843 74.0848L55.9067 72.9608C55.4314 72.2784 54.9501 71.6061 54.4513 70.9449ZM59.8422 65.7968C59.1469 65.7619 58.4429 65.7326 57.7342 65.7249C58.1023 66.1057 58.4573 66.495 58.7889 66.9055C58.887 66.7314 58.995 66.5632 59.1186 66.4097C59.2981 66.1895 59.5557 65.9561 59.8422 65.7968ZM58.3897 68.7731C58.3869 68.7687 58.3841 68.7643 58.3857 68.7572C58.3496 68.3359 58.4028 67.919 58.5306 67.522C58.0231 66.953 57.5536 66.3471 57.1104 65.7243C56.7141 65.732 56.3206 65.744 55.9311 65.772C56.7527 66.7628 57.5756 67.7651 58.3897 68.7731ZM61.1371 74.3666C61.2813 74.3604 61.4254 74.3542 61.5724 74.3524C59.3842 71.6282 57.3896 68.7056 55.4361 65.8183C55.1446 65.8451 54.8544 65.8833 54.5698 65.9304C55.3436 66.8222 56.0653 67.7629 56.7849 68.7008C57.0824 69.0885 57.3795 69.4757 57.6797 69.8588C58.8473 71.3497 60.0148 72.8405 61.1371 74.3666ZM59.7228 74.38C59.8611 74.3791 59.9994 74.3782 60.1385 74.3784C59.2344 73.2019 58.3558 72.0041 57.477 70.806C57.3679 70.6572 57.2588 70.5085 57.1497 70.3598C56.8803 69.9924 56.6067 69.6261 56.3326 69.2592C55.5423 68.2011 54.7483 67.1379 54.0408 66.0294C53.8124 66.0774 53.5867 66.1297 53.3667 66.1908C53.2509 66.222 53.1379 66.2575 53.025 66.293L53.0249 66.2931C53.9985 67.4498 54.9369 68.6395 55.8733 69.8267C55.9651 69.943 56.0568 70.0594 56.1486 70.1757L57.8283 72.3005C57.952 72.4568 58.0904 72.6172 58.2324 72.7819C58.6557 73.2725 59.111 73.8003 59.3031 74.3656C59.3045 74.3678 59.3048 74.3707 59.3051 74.3736C59.3054 74.3765 59.3057 74.3794 59.3071 74.3816C59.4461 74.3818 59.5845 74.3809 59.7228 74.38ZM58.3599 74.3784H58.3606C58.0431 74.0499 57.764 73.6348 57.5018 73.2447C57.384 73.0695 57.2696 72.8994 57.1566 72.7443L55.5424 70.5774C55.4745 70.4864 55.4065 70.3955 55.3385 70.3044C54.3926 69.0389 53.4419 67.7668 52.5393 66.4692C52.2999 66.5674 52.0618 66.6772 51.8292 66.7957C52.2829 67.1106 52.6454 67.6573 52.9685 68.1447C53.05 68.2676 53.129 68.3868 53.2064 68.4976C53.2872 68.6126 53.3679 68.7276 53.4485 68.8425C53.8685 69.4413 54.2868 70.0375 54.7204 70.6239C55.2416 71.32 55.776 72.0077 56.319 72.6897C56.4535 72.858 56.5889 73.0256 56.7247 73.1937C56.8752 73.3801 57.0263 73.5671 57.1769 73.7561C57.2143 73.8045 57.2505 73.8493 57.285 73.8919C57.4177 74.0563 57.5246 74.1887 57.5798 74.3738C57.8417 74.3782 58.1008 74.3783 58.3599 74.3784ZM71.3284 50.1775C71.0993 49.4172 70.8586 48.6582 70.6005 47.9104C70.029 46.4441 69.2496 45.0866 68.0285 44.1178C67.0548 43.342 65.9341 42.8273 64.8035 42.7202C63.8442 42.7068 62.8851 42.9339 62.0389 43.3849C61.921 43.4607 61.8058 43.5408 61.689 43.6282C60.0361 44.8946 58.9745 46.8385 57.9741 48.6702C57.7977 48.9932 57.6233 49.3126 57.4478 49.6243C56.0454 52.1116 54.6484 54.6264 53.4001 57.1999C53.2454 57.521 53.0898 57.8419 52.9341 58.1629C52.4484 59.1648 51.9622 60.1676 51.4998 61.1799C51.337 61.536 51.179 61.8944 51.0211 62.2527C50.8029 62.7476 50.5848 63.2424 50.3542 63.7307C50.7638 63.4553 51.1929 63.2104 51.6346 62.9946C51.6515 62.9344 51.6727 62.8714 51.6939 62.8084L51.6939 62.8084C51.7389 62.7918 51.7826 62.7638 51.8219 62.7385L51.8219 62.7385C52.0147 62.2704 52.2388 61.8106 52.4615 61.3538C52.5983 61.0733 52.7344 60.7939 52.8625 60.5144C52.9237 60.3887 53.1081 60.474 53.0613 60.6028C52.9511 60.8951 52.8463 61.1939 52.7411 61.4941C52.5999 61.8968 52.4579 62.3019 52.3009 62.6962C53.6792 62.1319 55.1717 61.8029 56.6419 61.6795C60.927 61.3159 65.3978 61.8948 69.5792 62.8015C69.7143 62.831 69.8509 62.8605 69.9887 62.8903C71.7975 63.2812 73.8138 63.7169 75.4832 64.5833C75.4595 64.5368 75.4358 64.4903 75.418 64.4338C74.7974 62.4298 74.243 60.4034 73.6887 58.377C73.1806 56.5194 72.6724 54.6619 72.1132 52.8216C72.0191 52.5117 71.9249 52.2017 71.8352 51.889C71.7896 51.8566 71.75 51.8141 71.7338 51.7504C71.7052 51.6381 71.6765 51.5247 71.6476 51.4104C71.5453 51.0063 71.4404 50.5915 71.3284 50.1775Z" fill="#001965"/>
</svg>
