<svg width="500" height="291" viewBox="0 0 500 291" fill="none" xmlns="http://www.w3.org/2000/svg">
<path d="M280.733 0.111771H219.379V3.35272H280.733V0.111771Z" fill="#001965"/>
<path d="M443.228 267.434H56.7725C51.6317 267.434 47.4967 263.299 47.4967 258.158V11.7345C47.6085 5.25257 52.861 0 59.3429 0H440.657C447.139 0 452.392 5.25257 452.392 11.7345V258.158C452.392 263.299 448.257 267.434 443.228 267.434ZM59.3429 3.46446C54.7609 3.46446 51.0729 7.15244 51.0729 11.7345V258.158C51.0729 261.287 53.6433 263.97 56.8843 263.97H443.228C446.357 263.97 449.039 261.399 449.039 258.158V11.7345C449.039 7.15244 445.351 3.46446 440.769 3.46446H59.3429Z" fill="#001965"/>
<path d="M438.534 250.671H61.4663V30.5096C61.4663 26.8216 64.4837 23.8042 68.1717 23.8042H431.828C435.516 23.8042 438.534 26.8216 438.534 30.5096V250.671ZM64.9308 247.206H435.069V30.5096C435.069 28.7215 433.617 27.2687 431.828 27.2687H68.1717C66.3836 27.2687 64.9308 28.7215 64.9308 30.5096V247.206Z" fill="#001965"/>
<path d="M253.8 13.6343C253.8 15.7577 252.123 17.4341 250 17.4341C247.877 17.4341 246.2 15.7577 246.2 13.6343C246.2 11.511 247.877 9.83461 250 9.83461C252.123 9.83461 253.8 11.6227 253.8 13.6343Z" fill="#001965"/>
<path d="M477.425 290.791H22.5749C10.1699 290.791 0 280.621 0 268.105C0 265.758 1.89987 263.858 4.24676 263.858H495.753C498.1 263.858 500 265.758 500 268.105C500 280.621 489.83 290.791 477.425 290.791ZM4.24676 267.434C3.79973 267.434 3.46446 267.769 3.46446 268.216C3.46446 278.721 12.0697 287.327 22.5749 287.327H477.313C487.819 287.327 496.424 278.721 496.424 268.216C496.424 267.769 496.089 267.434 495.641 267.434H4.24676Z" fill="#001965"/>
<path d="M283.974 278.945H215.914C208.538 278.945 202.615 273.022 202.615 265.646V263.97H297.273V265.646C297.273 273.022 291.35 278.945 283.974 278.945ZM206.08 267.322C206.862 272.128 210.997 275.704 216.026 275.704H284.086C289.115 275.704 293.25 272.016 294.032 267.322H206.08Z" fill="#001965"/>
<path d="M271.684 65.9301C270.473 64.8267 269.109 63.9073 267.669 63.187C267.715 63.1411 267.761 63.0951 267.807 63.0338C267.852 62.9725 267.898 62.8959 267.944 62.8346C267.316 62.4821 266.657 62.2063 265.983 61.9611C267.868 57.793 265.922 52.3989 260.727 52.0158C256.267 51.6787 252.835 56.8122 255.302 60.3061C254.842 60.3827 254.383 60.4594 253.923 60.582C246.813 62.3136 242.077 68.6731 238.292 74.4656C233.159 82.3268 228.378 90.4792 224.164 98.8768C221.85 103.489 219.413 108.025 217.191 112.684C215.276 116.699 213.207 120.698 211.72 124.897C208.824 127.042 206.342 129.77 204.564 133.172C201.99 138.106 201.683 143.7 204.043 148.757C204.947 150.703 206.296 152.572 207.951 154.043C208.364 154.656 208.824 155.254 209.33 155.836C210.862 157.568 212.625 158.947 214.555 160.05C216.256 161.215 218.049 162.211 219.949 163.023C222.095 163.927 224.378 164.632 226.677 165.031C227.933 165.245 229.435 165.46 230.875 165.399C230.998 165.429 231.105 165.475 231.228 165.491C231.259 165.506 231.289 165.506 231.32 165.521C231.55 165.674 231.826 165.766 232.178 165.766C241.71 165.812 251.226 165.935 260.757 165.858C268.465 165.797 277.124 166.456 284.28 163.023C292.723 160.418 298.577 151.929 297.121 142.765C296.417 138.321 294.302 135.026 291.406 132.498C291.436 132.375 291.452 132.253 291.436 132.115C291.375 131.394 291.16 130.659 290.946 129.969C291.237 129.571 291.36 129.065 291.222 128.452C288.617 117.266 285.291 106.248 282.61 95.0764C281.307 89.6057 280.158 84.0584 278.579 78.649C277.261 74.0365 275.3 69.2401 271.684 65.9301ZM260.681 54.7741C263.991 55.1726 264.665 58.6971 262.857 60.9497C260.972 60.3521 259.041 60.0609 257.08 60.1376C256.13 57.6551 257.754 54.4217 260.681 54.7741ZM284.74 158.579C277.828 163.207 268.205 162.058 260.313 162.119C252.942 162.181 245.571 162.349 238.216 162.502C231.412 161.997 223.995 161.338 217.789 158.426C216.977 158.043 216.164 157.599 215.398 157.093C215.475 157.032 215.459 156.894 215.352 156.863C215.153 156.802 214.969 156.741 214.77 156.664C210.893 153.936 207.905 149.799 208.089 145.094C208.931 149.875 212.854 153.293 217.298 155.009C222.922 157.185 229.404 157.675 235.35 158.35C246.031 159.56 256.88 159.652 267.623 158.917C271.653 158.671 275.668 158.365 279.713 158.135C281.782 158.028 284.433 157.829 286.655 157.032C286.057 157.599 285.429 158.12 284.74 158.579ZM208.211 143.776C208.288 143.271 208.41 142.765 208.564 142.259C208.594 142.152 208.625 142.06 208.671 141.953C210.97 145.431 213.253 148.956 215.674 152.358C212.287 150.626 209.514 147.975 208.502 143.976C208.472 143.822 208.349 143.761 208.211 143.776ZM216.072 146.826C217.069 148.343 218.08 149.875 219.091 151.392C219.704 152.312 220.225 153.476 221.022 154.289C220.026 154.043 219.03 153.737 218.049 153.385C215.26 149.109 212.195 144.956 209.192 140.834C209.177 140.819 209.161 140.788 209.146 140.773C209.544 139.869 210.05 139.026 210.632 138.244C211.92 141.294 214.264 144.098 216.072 146.826ZM220.026 146.381C221.972 149.308 223.918 152.251 225.865 155.177C225.16 155.086 224.47 154.978 223.78 154.856C223.397 154.794 223.014 154.718 222.616 154.641V154.626C222.539 153.078 221.283 151.852 220.44 150.596C219.413 149.078 218.402 147.577 217.375 146.06C215.459 143.24 213.713 139.838 211.261 137.463C211.858 136.758 212.517 136.114 213.222 135.517C213.237 135.578 213.253 135.655 213.283 135.716C215.214 139.44 217.712 142.903 220.026 146.381ZM220.409 139.026C221.911 141.11 223.382 143.209 224.822 145.355C226.186 147.377 227.504 149.446 228.791 151.515C229.496 152.649 230.201 153.814 230.906 154.948C231.09 155.239 231.259 155.53 231.427 155.79C230.4 155.698 229.374 155.607 228.362 155.499C226.079 152.036 223.811 148.557 221.528 145.094C219.26 141.631 217.053 138.03 214.448 134.812C214.402 134.766 214.356 134.72 214.31 134.689C215.107 134.122 215.95 133.616 216.823 133.172C217.283 135.21 219.199 137.356 220.409 139.026ZM241.035 134.597C242.016 133.172 243.487 132.467 244.698 131.364C249.77 131.9 254.812 132.62 259.838 133.525C259.807 133.862 259.899 134.214 260.16 134.551C261.462 136.222 262.443 137.8 262.535 139.976C262.627 142.106 261.83 144.205 260.436 145.799C257.432 149.247 252.605 150.029 248.36 148.787C244.391 147.623 240.453 144.42 239.733 140.145C239.442 138.26 239.963 136.176 241.035 134.597ZM235.319 130.49C237.404 130.613 239.472 130.812 241.526 131.027C240.652 131.456 239.855 132.084 239.304 132.712C238.905 133.157 238.568 133.616 238.262 134.122C237.327 132.866 236.346 131.655 235.319 130.49ZM279.131 155.147C276.97 152.45 274.58 149.906 272.266 147.332C270.182 145.018 268.159 142.52 265.891 140.344C265.983 138.903 265.814 137.447 265.355 136.099C267.898 139.394 270.641 142.55 273.308 145.753C274.948 147.73 276.649 149.676 278.349 151.592C279.422 152.802 280.525 154.166 281.721 155.361C280.924 155.453 280.127 155.515 279.33 155.561C279.3 155.423 279.238 155.285 279.131 155.147ZM270.795 148.328C272.848 150.779 274.856 153.293 277.001 155.652C276.679 155.668 276.373 155.668 276.066 155.683C275.622 155.698 275.162 155.729 274.718 155.744C274.702 155.729 274.687 155.698 274.687 155.683C273.017 153.614 271.162 151.684 269.385 149.707C267.898 148.052 266.473 146.228 264.834 144.68C265.186 143.868 265.462 143.01 265.646 142.137C267.27 144.282 269.094 146.289 270.795 148.328ZM266.366 152.021C265.155 150.672 263.914 149.339 262.673 148.021C262.75 147.929 262.826 147.853 262.903 147.761C263.347 147.255 263.746 146.703 264.098 146.106C265.293 147.699 266.703 149.17 267.975 150.657C269.446 152.388 270.871 154.166 272.388 155.882C271.714 155.928 271.055 155.959 270.381 156.005C270.243 155.944 270.09 155.898 269.921 155.913C269.814 155.913 269.722 155.944 269.63 155.974C268.895 154.457 267.485 153.262 266.366 152.021ZM267.623 155.821C266.228 155.959 264.834 156.082 263.424 156.174C261.922 154.396 260.39 152.649 258.857 150.887C259.976 150.32 261.018 149.615 261.953 148.741C262.933 149.998 263.914 151.254 264.926 152.48C265.784 153.522 266.611 154.81 267.623 155.821ZM261.784 156.281C260.711 156.342 259.654 156.403 258.581 156.449C258.229 155.76 257.555 155.208 257.049 154.61C256.344 153.814 255.685 152.955 254.934 152.189C255.93 152.005 256.911 151.73 257.861 151.346C259.148 153.001 260.466 154.656 261.784 156.281ZM250.567 152.358C251.502 152.45 252.421 152.465 253.356 152.388C253.984 153.431 254.812 154.35 255.563 155.3C255.854 155.668 256.13 156.112 256.451 156.526C253.708 156.603 250.95 156.618 248.207 156.572C246.92 154.473 245.602 152.404 244.238 150.35C245.173 150.856 246.138 151.285 247.119 151.622C247.64 151.791 248.161 151.944 248.697 152.067C249.448 153.461 250.429 154.81 251.364 155.99C251.824 156.572 252.697 155.806 252.36 155.208C251.839 154.258 251.241 153.277 250.567 152.358ZM236.76 139.516C236.76 139.532 236.76 139.547 236.76 139.562C234.523 136.467 232.255 133.387 229.987 130.337C231.136 130.322 232.301 130.337 233.465 130.383C234.661 132.283 235.948 134.137 237.358 135.9C236.929 137.049 236.714 138.275 236.76 139.516ZM245.265 156.511C244.836 156.495 244.407 156.495 243.978 156.48C240.913 151.821 237.71 147.224 234.507 142.658C231.688 138.643 228.991 134.475 225.972 130.598C226.83 130.506 227.688 130.444 228.546 130.398C233.833 139.21 239.242 148.144 245.265 156.511ZM241.035 156.357C240.223 156.311 239.396 156.281 238.584 156.235C238.584 156.219 238.583 156.204 238.568 156.189C237.925 153.921 235.902 151.775 234.553 149.86C233.021 147.684 231.473 145.508 229.941 143.347C227.106 139.348 224.301 135.333 221.359 131.425C221.696 131.333 222.034 131.241 222.386 131.18C223.045 131.042 223.719 130.919 224.393 130.812C226.968 135.363 230.017 139.685 232.868 144.052C235.565 148.174 238.246 152.297 241.035 156.357ZM235.795 156.066C235.028 156.02 234.262 155.974 233.496 155.928C233.327 155.239 232.914 154.764 232.408 154.043C231.626 152.94 230.83 151.852 230.048 150.764C228.546 148.665 227.09 146.565 225.665 144.42C224.24 142.275 222.907 140.099 221.543 137.923C220.501 136.252 219.367 133.938 217.758 132.697C218.463 132.375 219.168 132.099 219.903 131.854C222.539 136.114 225.328 140.267 228.102 144.435L232.515 151.071C233.511 152.603 234.507 154.595 235.795 156.066ZM283.912 154.963C282.824 153.323 281.307 151.791 280.066 150.35C278.38 148.404 276.679 146.489 274.932 144.604C271.806 141.248 268.757 137.8 265.477 134.597C266.106 134.72 266.719 134.858 267.331 134.98C268.236 135.18 269.17 135.363 270.12 135.547C275.346 141.891 280.847 148.006 286.41 154.043C285.613 154.457 284.786 154.748 283.912 154.963ZM287.728 153.231C282.548 147.347 277.292 141.508 271.821 135.9C273.584 136.268 275.392 136.666 277.17 137.172C281.123 142.091 285.123 146.979 289.168 151.821C288.724 152.358 288.249 152.833 287.728 153.231ZM290.164 150.182C286.441 145.998 282.702 141.846 278.916 137.723C282.257 138.842 285.337 140.405 287.621 142.903C289.674 145.14 290.425 147.699 290.164 150.182ZM293.873 150.626C294.011 149.37 293.965 148.098 293.674 146.795C291.896 138.597 283.269 135.256 276.02 133.494C267.454 131.394 258.75 129.847 249.985 128.805C241.894 127.839 233.404 126.767 225.267 127.701C218.371 128.498 211.782 131.287 207.782 137.187C205.698 140.267 204.917 143.7 205.3 147.025C204.028 143.286 204.12 139.041 205.913 135.164C210.311 125.663 221.145 121.802 230.937 121.296C241.786 120.714 253.003 122.69 263.546 125.096C268.925 126.322 274.243 127.824 279.453 129.632C284.357 131.333 289.26 133.509 292.065 138.106C294.302 141.769 295.099 146.473 293.873 150.626ZM276.036 80.0282C276.679 82.2808 277.261 84.5488 277.828 86.8321C278.166 88.4258 278.472 90.0042 278.779 91.5366C278.809 91.7358 278.916 91.8584 279.054 91.9503C279.284 92.8851 279.499 93.8199 279.729 94.7393C282.564 106.263 284.74 117.955 287.636 129.464C287.682 129.632 287.728 129.77 287.804 129.908C282.656 126.874 276.25 125.25 270.687 123.732C258.489 120.407 245.418 118.001 232.73 118.384C228.378 118.522 223.918 119.243 219.796 120.698C220.716 118.721 221.497 116.637 222.355 114.645C222.524 114.278 221.988 113.986 221.788 114.354C220.67 116.469 219.398 118.568 218.371 120.729C218.248 120.806 218.126 120.867 217.988 120.913C217.911 121.097 217.85 121.265 217.773 121.449C216.425 122.016 215.138 122.675 213.896 123.411C215.214 120.989 216.394 118.507 217.681 116.07C219.689 112.224 221.819 108.439 223.918 104.654C227.995 97.2831 232.515 90.0808 237.036 82.9704C240.821 77.0247 244.514 70.0522 250.475 65.976C250.827 65.7308 251.18 65.5163 251.548 65.3171C254.122 64.1218 256.972 63.6008 259.792 63.7847C263.117 64.2751 266.32 65.976 269.078 68.4126C272.496 71.4927 274.595 75.6149 276.036 80.0282Z" fill="#001965"/>
<path d="M186.604 137.892C180.045 145.615 187.585 157.691 196.917 157.89C198.266 157.92 198.572 155.652 197.178 155.484C193.24 155.024 189.669 153.308 187.692 149.691C185.746 146.136 186.298 142.075 187.554 138.398C187.738 137.877 186.957 137.478 186.604 137.892Z" fill="#001965"/>
<path d="M176.322 143.546C176.751 142.029 178.023 140.742 178.253 139.225C178.36 138.52 177.808 137.892 177.057 138.076C174.866 138.643 173.809 141.738 173.349 143.715C172.736 146.32 172.966 149.063 173.763 151.607C175.356 156.71 178.896 161.077 183.218 164.142C185.394 165.674 187.8 166.839 190.343 167.636C191.293 167.927 192.581 168.326 193.423 167.544C193.929 167.069 194.006 166.425 193.623 165.828C193.01 164.862 191.523 164.724 190.527 164.403C189.179 163.958 187.891 163.361 186.666 162.656C184.26 161.292 182.099 159.484 180.337 157.353C178.222 154.81 176.613 151.684 176.092 148.404C175.831 146.78 175.893 145.11 176.322 143.546Z" fill="#001965"/>
<path d="M275.714 92.3641C276.649 97.988 277.737 103.566 278.947 109.144C279.53 111.795 280.112 114.461 280.694 117.112C281.261 119.702 281.568 122.782 282.732 125.158C283.008 125.709 283.805 125.387 283.805 124.851C283.851 122.323 282.824 119.518 282.257 117.051C281.614 114.278 280.97 111.519 280.311 108.746C279.024 103.214 277.599 97.7275 276.02 92.2568C275.99 92.0423 275.683 92.1495 275.714 92.3641Z" fill="#001965"/>
<path d="M272.465 99.6277C272.45 102.478 273.155 105.543 273.844 108.286C274.105 109.313 275.545 108.837 275.377 107.857C274.917 105.068 274.35 102.018 273.231 99.4132C273.047 99.0301 272.465 99.2599 272.465 99.6277Z" fill="#001965"/>
<path d="M268.864 101.804C268.925 103.413 268.803 105.206 269.186 106.784C269.247 107.029 269.492 107.305 269.768 107.336C269.906 107.351 270.029 107.382 270.167 107.336C270.504 107.213 270.749 106.922 270.749 106.554C270.749 104.945 270.197 103.229 269.875 101.65C269.783 101.068 268.849 101.221 268.864 101.804Z" fill="#001965"/>
<path d="M251.318 71.0176C250.153 71.0023 249.004 71.1402 247.855 71.2169C247.18 71.2628 246.95 72.3815 247.717 72.4734C248.866 72.596 250.031 72.7799 251.18 72.8106C252.145 72.8412 253.218 73.0557 253.846 72.1823C253.938 72.0597 253.923 71.8298 253.831 71.7072C253.279 70.8491 252.207 71.0176 251.318 71.0176Z" fill="#001965"/>
<path d="M252.007 78.5877C250.766 77.607 249.081 78.0361 247.64 78.2353C246.46 78.4038 246.429 80.0895 247.671 80.1201C249.111 80.1508 250.919 80.396 252.007 79.2773C252.191 79.0934 252.207 78.741 252.007 78.5877Z" fill="#001965"/>
<path d="M245.801 88.6557C244.897 88.4411 243.993 88.3185 243.073 88.2113C241.602 88.0274 241.02 90.0808 242.522 90.4945C243.411 90.7397 244.284 90.9849 245.203 91.1228C246 91.2454 247.119 91.414 247.732 90.7551C247.901 90.5712 248.008 90.2647 247.916 90.0195C247.579 89.1767 246.629 88.8549 245.801 88.6557Z" fill="#001965"/>
<path d="M281.445 63.3709C280.096 61.7772 278.319 60.7352 276.311 60.1835C275.346 59.923 275.024 61.3788 275.944 61.67C277.706 62.237 279.208 63.3096 280.326 64.7961C281.23 66.0067 281.399 67.5697 282.288 68.719C282.594 69.1175 283.146 69.0562 283.33 68.5658C283.943 66.8189 282.533 64.6582 281.445 63.3709Z" fill="#001965"/>
<path d="M285.966 58.8044C284.908 57.6704 283.361 56.9808 281.844 56.8276C280.679 56.705 280.188 58.3293 281.399 58.6511C282.518 58.9576 283.391 59.5859 284.096 60.5053C284.663 61.2409 285 62.4208 285.904 62.7886C286.211 62.9112 286.671 62.9419 286.9 62.6354C287.835 61.3788 286.9 59.8004 285.966 58.8044Z" fill="#001965"/>
<rect x="195.5" y="183.5" width="110" height="19" rx="9.5" stroke="#001965"/>
<rect x="195.5" y="206.5" width="110" height="19" rx="9.5" stroke="#001965"/>
<path d="M249.646 220.354C249.842 220.549 250.158 220.549 250.354 220.354L253.536 217.172C253.731 216.976 253.731 216.66 253.536 216.464C253.34 216.269 253.024 216.269 252.828 216.464L250 219.293L247.172 216.464C246.976 216.269 246.66 216.269 246.464 216.464C246.269 216.66 246.269 216.976 246.464 217.172L249.646 220.354ZM249.5 212L249.5 220L250.5 220L250.5 212L249.5 212Z" fill="#001965"/>
</svg>
